<svg width="24" height="24" viewBox="0 0 24 24" fill="none" xmlns="http://www.w3.org/2000/svg">
<path d="M19.7598 3.67993L7.54889 1.52368C7.15717 1.45475 6.7541 1.54422 6.42833 1.77242C6.10256 2.00061 5.88076 2.34885 5.81171 2.74056L3.02264 18.5843C2.98853 18.7784 2.993 18.9773 3.03579 19.1697C3.07859 19.3621 3.15887 19.5441 3.27206 19.7054C3.38524 19.8668 3.5291 20.0042 3.69543 20.1099C3.86175 20.2156 4.04727 20.2875 4.24139 20.3215L16.4523 22.4777C16.6465 22.512 16.8455 22.5076 17.038 22.4649C17.2305 22.4222 17.4126 22.3419 17.5741 22.2287C17.7355 22.1155 17.873 21.9716 17.9788 21.8052C18.0846 21.6388 18.1565 21.4532 18.1905 21.259L20.9795 5.41524C21.0478 5.02339 20.9577 4.62045 20.729 4.29502C20.5003 3.9696 20.1517 3.74835 19.7598 3.67993ZM16.7111 21.0002L4.49921 18.844L7.28827 3.00024L19.4992 5.15649L16.7111 21.0002ZM8.37483 5.47712C8.40957 5.28134 8.52063 5.10738 8.6836 4.99346C8.84656 4.87954 9.0481 4.835 9.24389 4.86962L17.0251 6.24306C17.2101 6.27545 17.3761 6.37603 17.4905 6.52492C17.6049 6.67381 17.6592 6.86018 17.6429 7.04721C17.6265 7.23424 17.5406 7.40833 17.4021 7.53508C17.2636 7.66183 17.0826 7.73203 16.8948 7.73181C16.8508 7.73175 16.8069 7.72798 16.7636 7.72056L8.98233 6.34618C8.78655 6.31144 8.61259 6.20038 8.49867 6.03742C8.38475 5.87445 8.34021 5.67292 8.37483 5.47712ZM7.85546 8.43212C7.87255 8.3351 7.90859 8.24239 7.96152 8.1593C8.01445 8.07621 8.08323 8.00436 8.16394 7.94786C8.24464 7.89136 8.33569 7.85131 8.43187 7.83C8.52806 7.8087 8.6275 7.80655 8.72452 7.82368L16.5058 9.19806C16.692 9.2292 16.8596 9.32945 16.9752 9.47877C17.0907 9.6281 17.1457 9.81552 17.1292 10.0036C17.1126 10.1917 17.0257 10.3666 16.8858 10.4934C16.7459 10.6203 16.5633 10.6896 16.3745 10.6877C16.3302 10.6878 16.2859 10.6838 16.2423 10.6756L8.46108 9.30212C8.26546 9.26695 8.09179 9.15557 7.97823 8.99244C7.86468 8.82932 7.82052 8.62779 7.85546 8.43212ZM7.33514 11.3862C7.37054 11.1909 7.48187 11.0176 7.64476 10.9043C7.80765 10.791 8.00882 10.7468 8.20421 10.7815L12.093 11.4649C12.2778 11.4973 12.4438 11.5978 12.5582 11.7466C12.6725 11.8954 12.727 12.0817 12.7107 12.2686C12.6945 12.4556 12.6087 12.6297 12.4704 12.7565C12.3321 12.8833 12.1512 12.9537 11.9636 12.9537C11.9196 12.9537 11.8757 12.9499 11.8323 12.9424L7.94171 12.2552C7.7461 12.2203 7.57237 12.1091 7.45864 11.9462C7.34492 11.7833 7.3005 11.5818 7.33514 11.3862Z" fill="#9FEEDC"/>
</svg>
