<svg width="1400" height="848" viewBox="0 0 1400 848" fill="none" xmlns="http://www.w3.org/2000/svg">
<rect width="1400" height="848" fill="#221D25"/>
<circle opacity="0.3" cx="702.854" cy="428.189" r="396.5" stroke="#FFF0D6" stroke-dasharray="8 8"/>
<circle opacity="0.1" cx="702.854" cy="428.189" r="405.5" stroke="#FFF0D6" stroke-dasharray="8 8"/>
<path opacity="0.1" d="M844.337 225.832C844.985 228.391 845.619 230.969 846.243 233.565L845.76 233.682C846.378 236.253 846.984 238.841 847.578 241.448L848.061 241.337C848.647 243.908 849.222 246.495 849.784 249.099L849.299 249.204C849.858 251.796 850.406 254.405 850.941 257.029L851.428 256.928C851.954 259.508 852.471 262.102 852.974 264.712L852.485 264.807C852.988 267.415 853.48 270.038 853.959 272.675L854.448 272.586C854.918 275.175 855.377 277.778 855.824 280.395L855.334 280.479C855.78 283.091 856.215 285.717 856.639 288.356L857.129 288.277C857.547 290.885 857.955 293.505 858.35 296.139L857.858 296.213C858.251 298.828 858.632 301.455 859.001 304.094L859.494 304.025C859.861 306.65 860.215 309.288 860.559 311.938L860.068 312.002C860.408 314.618 860.737 317.245 861.055 319.883L861.548 319.823C861.865 322.463 862.173 325.114 862.468 327.776L861.972 327.83C862.261 330.448 862.54 333.077 862.807 335.716L863.301 335.666C863.568 338.304 863.825 340.953 864.069 343.611L863.574 343.657C863.816 346.291 864.048 348.935 864.267 351.589L864.764 351.548C864.982 354.184 865.187 356.829 865.383 359.483L864.888 359.519C865.083 362.168 865.268 364.827 865.44 367.494L865.937 367.462C866.108 370.095 866.266 372.736 866.414 375.386L865.918 375.414C866.066 378.062 866.202 380.718 866.328 383.382L866.824 383.359C866.949 386.003 867.065 388.656 867.167 391.316H867.168L866.669 391.335C866.77 393.979 866.861 396.629 866.94 399.287L867.436 399.273C867.516 401.93 867.585 404.594 867.641 407.266L867.143 407.277C867.199 409.915 867.244 412.561 867.278 415.212L867.774 415.206C867.808 417.859 867.832 420.519 867.844 423.185L867.346 423.187C867.351 424.519 867.354 425.853 867.354 427.189C867.354 428.524 867.351 429.858 867.346 431.191L867.844 431.192C867.832 433.858 867.808 436.518 867.774 439.171L867.278 439.165C867.244 441.817 867.199 444.462 867.143 447.101L867.641 447.111C867.585 449.782 867.516 452.447 867.436 455.105L866.94 455.09C866.861 457.748 866.77 460.399 866.669 463.042L867.167 463.061C867.065 465.721 866.949 468.373 866.824 471.018L866.328 470.995C866.202 473.66 866.066 476.316 865.918 478.964L866.414 478.991C866.266 481.64 866.108 484.282 865.937 486.914L865.44 486.883C865.268 489.55 865.083 492.209 864.888 494.859L865.383 494.894C865.187 497.548 864.982 500.193 864.764 502.828L864.267 502.788C864.048 505.442 863.816 508.086 863.574 510.721L864.069 510.766C863.825 513.424 863.568 516.072 863.301 518.71L862.807 518.661C862.54 521.3 862.261 523.929 861.972 526.547L862.468 526.601C862.173 529.263 861.865 531.914 861.548 534.554L861.055 534.494C860.737 537.133 860.408 539.76 860.068 542.375L860.559 542.439C860.215 545.088 859.861 547.726 859.494 550.352L859.001 550.284C858.632 552.923 858.251 555.55 857.858 558.164L858.35 558.238C857.955 560.871 857.547 563.492 857.129 566.1L856.639 566.022C856.215 568.661 855.78 571.287 855.334 573.899L855.824 573.982C855.377 576.598 854.918 579.201 854.448 581.79L853.959 581.702C853.48 584.34 852.988 586.963 852.485 589.571L852.974 589.664C852.471 592.274 851.954 594.869 851.428 597.449L850.941 597.349C850.406 599.973 849.858 602.581 849.299 605.173L849.784 605.278C849.222 607.882 848.647 610.469 848.061 613.039L847.578 612.929C846.984 615.535 846.378 618.125 845.76 620.696L846.243 620.812C845.619 623.407 844.985 625.985 844.337 628.544L843.853 628.422C843.198 631.01 842.53 633.579 841.85 636.128L842.332 636.256C841.643 638.84 840.941 641.405 840.227 643.949L839.749 643.815C839.029 646.383 838.296 648.93 837.551 651.456L838.027 651.597C837.27 654.166 836.498 656.713 835.716 659.238L835.242 659.09C834.452 661.638 833.65 664.162 832.835 666.663L833.307 666.817C832.476 669.366 831.632 671.89 830.776 674.39L830.307 674.23C829.443 676.755 828.564 679.255 827.674 681.729L828.141 681.897C827.234 684.419 826.315 686.915 825.381 689.383L824.914 689.207C823.968 691.708 823.008 694.18 822.035 696.623L822.499 696.808C821.508 699.296 820.504 701.755 819.486 704.183L819.026 703.991C817.99 706.463 816.94 708.904 815.877 711.313L816.333 711.514C815.254 713.959 814.162 716.371 813.056 718.748L812.602 718.537C811.467 720.977 810.317 723.38 809.153 725.747L809.601 725.967C808.426 728.359 807.235 730.713 806.031 733.03L805.589 732.8C804.344 735.195 803.084 737.549 801.809 739.862L802.247 740.103C800.953 742.451 799.644 744.756 798.32 747.018L797.89 746.767C796.536 749.08 795.167 751.348 793.783 753.569L794.206 753.832C792.778 756.124 791.335 758.365 789.876 760.556L789.461 760.28C787.978 762.505 786.481 764.679 784.968 766.798L785.374 767.088C783.806 769.284 782.221 771.421 780.621 773.5L780.225 773.197C778.581 775.333 776.921 777.406 775.244 779.416L775.627 779.736C773.904 781.8 772.165 783.798 770.409 785.728L770.041 785.392C768.234 787.377 766.41 789.29 764.57 791.127L764.922 791.479C763.004 793.394 761.069 795.229 759.116 796.982L758.783 796.612C756.78 798.409 754.758 800.121 752.72 801.742L753.03 802.132C750.921 803.81 748.794 805.394 746.649 806.881L746.365 806.471C744.163 807.997 741.944 809.422 739.707 810.741L739.959 811.169C737.639 812.537 735.3 813.793 732.943 814.935L732.726 814.487C730.316 815.654 727.886 816.701 725.44 817.625L725.616 818.091C723.107 819.039 720.58 819.859 718.036 820.546L717.907 820.065C715.347 820.756 712.769 821.314 710.176 821.735L710.255 822.227C707.634 822.652 704.997 822.936 702.345 823.079L702.318 822.582C701.001 822.653 699.679 822.689 698.354 822.689C697.029 822.689 695.708 822.653 694.391 822.582L694.363 823.079C691.711 822.936 689.074 822.652 686.453 822.227L686.533 821.734C683.94 821.313 681.362 820.756 678.802 820.065L678.672 820.546C676.127 819.859 673.6 819.039 671.092 818.091L671.268 817.625C668.822 816.701 666.393 815.654 663.982 814.487L663.765 814.935C661.408 813.793 659.069 812.537 656.749 811.169L657.002 810.741C654.765 809.422 652.544 807.997 650.343 806.471L650.058 806.881C647.913 805.394 645.786 803.81 643.678 802.132L643.988 801.742C641.95 800.121 639.929 798.409 637.926 796.612L637.592 796.982C635.639 795.229 633.703 793.394 631.786 791.479L632.139 791.127C630.298 789.29 628.474 787.377 626.668 785.392L626.299 785.728C624.543 783.798 622.803 781.8 621.081 779.736L621.465 779.416C619.788 777.406 618.127 775.333 616.483 773.197L616.087 773.5C614.487 771.421 612.902 769.284 611.334 767.088H611.335L611.741 766.797C610.228 764.678 608.73 762.505 607.248 760.28L606.832 760.556C605.373 758.365 603.93 756.124 602.502 753.832L602.926 753.569C601.542 751.348 600.173 749.08 598.819 746.767L598.388 747.018C597.064 744.756 595.755 742.451 594.461 740.103L594.899 739.862C593.625 737.549 592.365 735.195 591.12 732.8L590.677 733.03C589.473 730.713 588.282 728.359 587.106 725.967L587.556 725.747C586.392 723.38 585.242 720.977 584.106 718.537L583.653 718.748H583.652C582.546 716.371 581.454 713.959 580.375 711.514L580.832 711.313C579.769 708.904 578.719 706.463 577.682 703.991L577.222 704.183C576.204 701.755 575.199 699.296 574.209 696.808L574.674 696.624C573.701 694.181 572.741 691.708 571.795 689.207L571.327 689.383C570.393 686.915 569.474 684.419 568.566 681.897L569.035 681.729C568.145 679.255 567.266 676.755 566.401 674.23L565.932 674.39C565.076 671.89 564.232 669.366 563.401 666.818L563.874 666.663C563.059 664.162 562.256 661.638 561.467 659.09L560.992 659.238C560.209 656.713 559.438 654.166 558.681 651.597L559.158 651.456C558.413 648.93 557.681 646.383 556.961 643.815L556.48 643.949C555.767 641.405 555.065 638.84 554.376 636.256L554.858 636.128C554.179 633.579 553.511 631.01 552.855 628.422L552.371 628.544C551.723 625.985 551.089 623.407 550.465 620.812L550.949 620.696C550.331 618.125 549.725 615.536 549.131 612.93L548.646 613.039C548.061 610.469 547.486 607.882 546.924 605.278L547.41 605.173C546.851 602.581 546.303 599.973 545.767 597.349L545.28 597.449C544.754 594.869 544.237 592.274 543.733 589.664L544.224 589.571C543.721 586.963 543.229 584.34 542.75 581.702L542.26 581.79C541.789 579.201 541.331 576.598 540.884 573.982L541.375 573.899C540.928 571.287 540.493 568.661 540.07 566.022L539.579 566.1C539.161 563.492 538.752 560.871 538.357 558.238L538.85 558.164C538.458 555.55 538.077 552.923 537.708 550.284L537.214 550.352C536.846 547.726 536.493 545.088 536.148 542.439L536.641 542.375C536.3 539.76 535.972 537.133 535.654 534.494L535.16 534.554C534.842 531.914 534.535 529.263 534.24 526.601L534.737 526.547C534.447 523.929 534.168 521.3 533.901 518.661L533.407 518.71C533.14 516.072 532.883 513.424 532.639 510.766L533.135 510.721C532.892 508.086 532.661 505.442 532.441 502.788L531.944 502.828C531.726 500.193 531.521 497.548 531.325 494.894L531.821 494.859C531.626 492.209 531.441 489.55 531.268 486.883L530.77 486.914C530.6 484.282 530.442 481.64 530.294 478.991L530.791 478.963C530.643 476.315 530.506 473.659 530.381 470.995L529.884 471.018C529.759 468.373 529.643 465.721 529.541 463.061L530.04 463.042C529.938 460.399 529.848 457.748 529.768 455.09L529.271 455.104C529.192 452.447 529.123 449.782 529.066 447.111L529.565 447.101C529.509 444.463 529.464 441.817 529.431 439.165L528.933 439.17C528.9 436.517 528.875 433.858 528.864 431.192L529.363 431.191C529.358 429.858 529.354 428.524 529.354 427.189C529.354 425.853 529.358 424.519 529.363 423.187L528.864 423.185C528.875 420.519 528.9 417.859 528.933 415.205L529.431 415.212C529.464 412.56 529.509 409.915 529.565 407.277L529.066 407.266C529.123 404.594 529.192 401.929 529.271 399.272L529.768 399.287C529.848 396.629 529.938 393.978 530.04 391.335L529.541 391.316C529.643 388.656 529.759 386.003 529.884 383.359L530.381 383.382C530.506 380.718 530.643 378.061 530.791 375.413L530.294 375.386C530.442 372.736 530.6 370.095 530.77 367.462L531.268 367.494C531.441 364.827 531.626 362.168 531.821 359.519L531.325 359.483C531.521 356.829 531.726 354.184 531.944 351.548L532.441 351.589C532.661 348.935 532.892 346.291 533.135 343.657L532.639 343.611C532.883 340.952 533.14 338.304 533.407 335.666L533.901 335.716C534.168 333.077 534.447 330.449 534.737 327.83L534.24 327.776C534.535 325.114 534.842 322.463 535.16 319.823L535.654 319.883C535.972 317.245 536.3 314.618 536.641 312.002L536.148 311.938C536.493 309.288 536.846 306.65 537.214 304.025L537.708 304.094C538.077 301.455 538.458 298.828 538.85 296.213L538.357 296.139C538.752 293.505 539.161 290.885 539.579 288.277L540.07 288.356C540.493 285.717 540.928 283.091 541.375 280.479L540.884 280.395C541.331 277.778 541.789 275.175 542.26 272.586L542.75 272.675C543.229 270.038 543.721 267.415 544.224 264.807L543.733 264.712C544.237 262.102 544.754 259.508 545.28 256.928L545.767 257.029C546.303 254.405 546.851 251.796 547.41 249.204L546.924 249.099C547.486 246.495 548.061 243.908 548.646 241.337L549.131 241.449C549.725 238.842 550.331 236.253 550.949 233.682L550.465 233.565C551.079 231.008 551.704 228.468 552.342 225.947L552.371 225.832L552.855 225.955C553.511 223.368 554.179 220.799 554.858 218.249L554.376 218.12C555.065 215.536 555.767 212.972 556.48 210.428L556.96 210.563C557.68 207.995 558.413 205.447 559.158 202.921L558.681 202.78C559.438 200.211 560.209 197.664 560.992 195.139L561.467 195.287C562.256 192.74 563.059 190.215 563.874 187.714L563.401 187.56C564.232 185.011 565.075 182.487 565.932 179.987L566.401 180.148C567.266 177.623 568.145 175.123 569.035 172.649L568.566 172.48C569.474 169.958 570.393 167.461 571.327 164.993L571.795 165.17C572.741 162.67 573.701 160.198 574.674 157.754L574.209 157.569C575.15 155.203 576.104 152.865 577.07 150.554L577.222 150.194L577.682 150.387C578.719 147.914 579.769 145.473 580.832 143.065L580.375 142.863C581.454 140.418 582.546 138.006 583.652 135.628L583.653 135.629L584.106 135.84C585.242 133.401 586.392 130.997 587.556 128.63L587.106 128.409C588.282 126.018 589.473 123.663 590.677 121.347L591.12 121.577C592.365 119.182 593.625 116.828 594.899 114.516L594.461 114.274C595.755 111.925 597.064 109.62 598.388 107.359L598.819 107.611C600.173 105.297 601.542 103.029 602.926 100.809L602.502 100.544C603.93 98.253 605.373 96.0113 606.832 93.8206L607.248 94.098C608.73 91.8721 610.228 89.6986 611.741 87.5794L611.335 87.2894L611.334 87.2884C612.902 85.0929 614.487 82.9555 616.087 80.8763L616.483 81.181C618.127 79.0448 619.788 76.9712 621.465 74.9612L621.081 74.6409C622.803 72.5762 624.543 70.5783 626.299 68.6487L626.668 68.9857C628.474 67.0007 630.298 65.088 632.139 63.2503L631.786 62.8978C633.703 60.9828 635.639 59.1476 637.592 57.3948L637.926 57.7659C639.929 55.9682 641.951 54.257 643.989 52.6351L643.678 52.2444C645.786 50.5665 647.913 48.9825 650.058 47.4954L650.344 47.9066C652.545 46.3804 654.765 44.956 657.002 43.637L656.749 43.2073C659.069 41.8396 661.408 40.5834 663.765 39.4417L663.982 39.8909C666.393 38.7232 668.822 37.6762 671.268 36.7523L671.092 36.2855C673.6 35.3378 676.127 34.5178 678.672 33.8304L678.802 34.3128C681.362 33.6211 683.94 33.0631 686.533 32.6429L686.453 32.1497C689.074 31.725 691.711 31.4404 694.363 31.2972L694.391 31.7952C695.708 31.7241 697.029 31.6888 698.354 31.6888C699.679 31.6888 701.001 31.7241 702.318 31.7952L702.345 31.2972C704.997 31.4403 707.634 31.7251 710.255 32.1497L710.176 32.6439C712.769 33.0641 715.347 33.6211 717.907 34.3128L718.036 33.8304C720.58 34.5178 723.107 35.3378 725.616 36.2855L725.44 36.7523C727.886 37.6762 730.316 38.7232 732.726 39.8909L732.943 39.4417C735.3 40.5834 737.639 41.8396 739.959 43.2073L739.707 43.637C741.944 44.9561 744.164 46.3803 746.366 47.9066L746.649 47.4954C748.794 48.9825 750.921 50.5665 753.03 52.2444L752.721 52.6351C754.759 54.257 756.78 55.9682 758.783 57.7659L759.116 57.3948C761.069 59.1476 763.004 60.9828 764.922 62.8978L764.57 63.2503C766.41 65.088 768.234 67.0007 770.041 68.9857L770.409 68.6487C772.165 70.5783 773.904 72.5762 775.627 74.6409L775.244 74.9612C776.921 76.9712 778.581 79.0448 780.225 81.181L780.621 80.8763C782.221 82.9555 783.806 85.0929 785.374 87.2884V87.2894L784.968 87.5804C786.481 89.6994 787.979 91.8723 789.461 94.098L789.876 93.8206C791.335 96.0113 792.778 98.253 794.206 100.544L793.783 100.809C795.167 103.029 796.536 105.297 797.89 107.611L798.32 107.359C799.644 109.62 800.953 111.925 802.247 114.274L801.809 114.516C803.084 116.828 804.344 119.182 805.589 121.577L806.031 121.347C807.235 123.663 808.426 126.018 809.601 128.409L809.153 128.63C810.317 130.997 811.467 133.401 812.602 135.84L813.056 135.629V135.628C814.162 138.006 815.254 140.418 816.333 142.863L815.877 143.065C816.94 145.473 817.99 147.914 819.026 150.387L819.486 150.194C820.504 152.622 821.508 155.08 822.499 157.569L822.035 157.753C823.008 160.197 823.968 162.67 824.914 165.17L825.381 164.993C826.315 167.461 827.234 169.958 828.141 172.48L827.674 172.649C828.564 175.123 829.443 177.623 830.307 180.148L830.776 179.987C831.632 182.486 832.476 185.01 833.307 187.559L832.835 187.714C833.65 190.215 834.452 192.74 835.242 195.287L835.716 195.139C836.498 197.664 837.27 200.211 838.027 202.78L837.551 202.921C838.296 205.447 839.028 207.995 839.748 210.563L840.227 210.428C840.941 212.972 841.643 215.536 842.332 218.12L841.85 218.249C842.53 220.799 843.198 223.368 843.853 225.955L844.337 225.832Z" stroke="#FFF0D6" stroke-dasharray="8 8"/>
<path opacity="0.6" d="M535.918 222.617L536.654 219.655C537.104 217.848 538.403 216.859 540.726 217.437L543.362 218.092C545.685 218.67 546.369 220.153 545.92 221.96L545.183 224.922L535.918 222.617ZM543.112 219.098L540.476 218.442C538.71 218.003 537.923 218.557 537.592 219.888L537.105 221.845L544.496 223.683L544.983 221.727C545.314 220.395 544.878 219.537 543.112 219.098ZM544.971 210.545L545.54 210.692L544.296 215.518L544.35 215.532C545.964 215.948 546.762 215.373 547.059 214.221L547.077 214.153C547.297 213.299 547.136 212.578 546.423 212.091L546.678 211.101C547.97 211.81 548.338 213.018 547.985 214.388L547.968 214.455C547.524 216.177 546.251 217.078 544.095 216.522L543.472 216.361C541.302 215.802 540.641 214.388 541.081 212.68L541.098 212.612C541.542 210.89 542.816 209.99 544.971 210.545ZM542.007 212.846L541.989 212.914C541.706 214.012 542.077 214.874 543.496 215.312L544.485 211.476C543.031 211.173 542.29 211.748 542.007 212.846ZM550.026 206.1L549.642 207.534L542.376 208.253L542.655 207.212L548.896 206.638L548.936 206.49L543.815 202.885L544.094 201.844L550.026 206.1ZM542.015 196.885L542.479 195.271L544.067 195.727L543.603 197.342L542.015 196.885ZM551.381 197.8L552.031 195.539L552.932 195.798L552.345 197.844C552.055 198.853 551.241 199.201 550.272 198.923L546.235 197.763L545.489 200.36L544.587 200.101L545.62 196.508L550.908 198.028C551.177 198.105 551.315 198.029 551.381 197.8ZM554.285 191.752L554.265 191.819C553.757 193.523 552.451 194.375 550.318 193.739L549.701 193.555C547.554 192.915 546.945 191.477 547.45 189.786L547.47 189.719C547.918 188.217 549.005 187.314 550.669 187.664L550.372 188.657C549.277 188.461 548.657 189.021 548.369 189.987L548.349 190.054C548.008 191.195 548.396 192.099 549.993 192.576L550.61 192.76C552.206 193.236 553.026 192.691 553.366 191.551L553.386 191.484C553.67 190.531 553.466 189.696 552.438 189.273L552.735 188.28C554.318 188.898 554.733 190.249 554.285 191.752ZM553.74 180.276L554.302 180.45L552.827 185.211L552.881 185.228C554.472 185.721 555.298 185.185 555.65 184.048L555.67 183.981C555.931 183.139 555.805 182.411 555.116 181.89L555.419 180.913C556.675 181.684 556.985 182.908 556.566 184.259L556.546 184.326C556.02 186.024 554.705 186.862 552.578 186.204L551.963 186.013C549.823 185.351 549.23 183.906 549.752 182.221L549.773 182.154C550.299 180.456 551.614 179.618 553.74 180.276ZM550.669 182.432L550.648 182.499C550.313 183.582 550.641 184.461 552.038 184.967L553.21 181.182C551.772 180.81 551.004 181.349 550.669 182.432ZM558.122 164.275L559.825 166.594L562.437 165.718L562.569 165.764L562.209 166.809L560.387 167.41C561.211 168.672 561.41 169.555 561.041 170.627C560.58 171.964 559.352 172.518 558.055 172.071C556.93 171.683 556.23 170.835 555.705 168.965C554.794 169.288 554.07 169.542 553.183 169.236C552.164 168.885 551.603 167.847 552.005 166.683C552.415 165.491 553.474 165.042 554.533 165.407C555.419 165.713 555.907 166.488 556.306 167.78L558.9 166.913L557.372 164.816L558.122 164.275ZM552.852 166.975C552.628 167.623 552.96 168.123 553.516 168.314C554.138 168.529 554.609 168.365 555.484 168.06C555.18 167.007 554.809 166.539 554.2 166.329C553.631 166.133 553.089 166.286 552.852 166.975ZM560.181 170.286C560.45 169.505 560.253 168.83 559.486 167.707L556.576 168.673C557.064 170.263 557.598 170.862 558.353 171.122C559.186 171.409 559.921 171.041 560.181 170.286ZM566.803 154.596L566.778 154.661C566.091 156.482 564.783 157.409 562.753 156.643L563.119 155.674C564.625 156.242 565.368 155.7 565.888 154.325L565.912 154.259C566.402 152.963 566.161 152.094 565.127 151.703C563.83 151.213 563.102 152.39 562.36 153.322C561.522 154.353 560.483 155.561 558.793 154.923C557.344 154.361 556.916 152.958 557.515 151.373L557.539 151.308C558.172 149.631 559.462 148.711 561.492 149.478L561.131 150.434C559.625 149.865 558.885 150.439 558.43 151.644L558.405 151.709C557.97 152.862 558.26 153.6 559.164 153.941C560.343 154.386 561.028 153.403 561.713 152.539C562.553 151.465 563.633 150.032 565.493 150.734C567.064 151.327 567.466 152.841 566.803 154.596ZM567.124 143.155L567.67 143.373L565.822 148.002L565.874 148.023C567.421 148.641 568.286 148.172 568.728 147.067L568.753 147.002C569.081 146.183 569.013 145.447 568.368 144.873L568.747 143.924C569.938 144.792 570.149 146.037 569.625 147.35L569.599 147.415C568.939 149.066 567.562 149.797 565.495 148.972L564.896 148.733C562.816 147.902 562.34 146.415 562.994 144.777L563.02 144.712C563.679 143.061 565.057 142.33 567.124 143.155ZM563.891 145.06L563.865 145.125C563.444 146.178 563.702 147.08 565.054 147.696L566.524 144.016C565.12 143.531 564.311 144.007 563.891 145.06ZM568.309 134.721L567.673 136.246C567.145 137.512 567.586 138.348 568.697 138.812L571.475 139.97L572.537 137.424L573.402 137.785L571.263 142.915L570.397 142.554L571.082 140.913L566.508 139.006L565.823 140.647L564.957 140.286L566.003 137.779L567.224 138.197L567.278 138.068C566.654 137.49 566.396 136.836 566.833 135.789L567.431 134.355L568.309 134.721ZM575.817 132.201L575.224 133.562L567.932 133.192L568.363 132.204L574.62 132.565L574.682 132.424L570.153 128.097L570.584 127.109L575.817 132.201ZM569.275 121.889L569.976 120.362L571.478 121.051L570.777 122.578L569.275 121.889ZM578.398 124.197L579.379 122.059L580.232 122.45L579.344 124.384C578.906 125.339 578.049 125.561 577.133 125.141L573.316 123.389L572.189 125.845L571.336 125.453L572.896 122.056L577.896 124.351C578.15 124.468 578.299 124.413 578.398 124.197ZM582.226 118.679L582.196 118.741C581.416 120.34 579.989 120.967 577.988 119.992L577.409 119.709C575.396 118.727 575.03 117.21 575.803 115.624L575.834 115.561C576.521 114.152 577.742 113.438 579.326 114.055L578.871 114.986C577.822 114.615 577.119 115.066 576.677 115.972L576.647 116.035C576.125 117.105 576.36 118.06 577.857 118.791L578.436 119.073C579.933 119.803 580.831 119.4 581.353 118.33L581.383 118.267C581.819 117.374 581.754 116.517 580.809 115.931L581.263 115C582.725 115.869 582.914 117.269 582.226 118.679ZM583.637 107.267L584.16 107.535L581.887 111.971L581.937 111.996C583.42 112.756 584.325 112.371 584.868 111.312L584.9 111.249C585.302 110.464 585.303 109.725 584.714 109.094L585.181 108.184C586.285 109.159 586.379 110.419 585.734 111.677L585.703 111.739C584.892 113.322 583.452 113.921 581.471 112.906L580.898 112.612C578.904 111.591 578.569 110.066 579.373 108.496L579.405 108.434C580.216 106.851 581.656 106.252 583.637 107.267ZM580.24 108.861L580.208 108.924C579.691 109.933 579.863 110.855 581.152 111.594L582.959 108.068C581.606 107.454 580.757 107.852 580.24 108.861ZM589.443 104.654L589.41 104.715C588.47 106.451 587.222 106.906 585.865 106.236L586.351 105.337C587.196 105.746 587.902 105.619 588.622 104.289L588.655 104.227C589.288 103.058 589.114 102.438 588.535 102.125C587.808 101.732 587.254 102.403 586.524 103.282C585.625 104.355 584.733 105.416 583.489 104.743C582.479 104.197 582.255 102.993 583.041 101.54L583.075 101.479C583.934 99.8903 585.151 99.4348 586.483 100.092L585.997 100.991C585.177 100.594 584.483 100.729 583.857 101.886L583.817 101.96C583.277 102.957 583.433 103.583 583.95 103.862C584.639 104.235 585.173 103.601 585.884 102.728C586.778 101.636 587.69 100.538 588.996 101.244C590.104 101.844 590.262 103.139 589.443 104.654Z" fill="#FFF0D6"/>
<path opacity="0.1" d="M1047.22 230.534C1048.41 232.917 1049.47 235.357 1050.41 237.852L1049.94 238.027C1050.86 240.496 1051.66 243.019 1052.33 245.594L1052.81 245.467C1053.48 248.026 1054.03 250.635 1054.45 253.291L1053.96 253.37C1054.37 255.961 1054.67 258.598 1054.86 261.279L1055.35 261.244C1055.53 263.865 1055.61 266.527 1055.57 269.227L1055.07 269.223C1055.04 271.829 1054.91 274.471 1054.68 277.149L1055.18 277.191C1054.95 279.801 1054.63 282.443 1054.22 285.116L1053.73 285.04C1053.34 287.624 1052.85 290.237 1052.29 292.878L1052.78 292.981C1052.22 295.557 1051.59 298.158 1050.88 300.782L1050.4 300.653C1049.72 303.17 1048.96 305.71 1048.14 308.27L1048.61 308.423C1047.81 310.914 1046.94 313.426 1046 315.955L1045.53 315.782C1044.62 318.245 1043.64 320.726 1042.6 323.223L1043.06 323.414C1042.05 325.842 1040.98 328.286 1039.85 330.744L1039.39 330.537C1038.3 332.911 1037.16 335.3 1035.96 337.7L1036.4 337.923C1035.22 340.286 1033.99 342.66 1032.71 345.046L1032.71 345.047L1032.27 344.81C1031.02 347.12 1029.73 349.442 1028.39 351.772L1028.83 352.021L1028.83 352.021C1027.52 354.301 1026.16 356.59 1024.76 358.888L1024.33 358.629C1022.95 360.889 1021.53 363.158 1020.07 365.434L1020.49 365.704C1019.07 367.907 1017.61 370.116 1016.11 372.332L1015.7 372.054C1014.22 374.247 1012.69 376.446 1011.14 378.65L1011.54 378.939L1011.54 378.939C1010.02 381.086 1008.47 383.237 1006.88 385.394L1006.48 385.097C1004.91 387.223 1003.3 389.354 1001.66 391.488L1002.06 391.791C1000.45 393.885 998.813 395.984 997.139 398.085L997.138 398.086L996.748 397.774C995.103 399.839 993.426 401.906 991.719 403.975L992.104 404.293C990.42 406.334 988.704 408.377 986.959 410.423L986.58 410.1C984.867 412.108 983.126 414.117 981.356 416.127L981.729 416.456C979.978 418.445 978.2 420.436 976.394 422.426L976.024 422.093C974.25 424.048 972.45 426.004 970.623 427.96L970.987 428.299C969.178 430.237 967.343 432.174 965.482 434.112L965.122 433.768C963.292 435.674 961.436 437.581 959.557 439.487L959.912 439.836C958.051 441.723 956.168 443.61 954.259 445.495L954.258 445.496L953.908 445.14C952.024 447.001 950.118 448.861 948.189 450.719L948.535 451.078C946.628 452.915 944.698 454.75 942.747 456.584L942.406 456.222C940.473 458.04 938.518 459.856 936.542 461.67L936.878 462.036C934.93 463.824 932.961 465.61 930.972 467.395L930.64 467.025C928.66 468.802 926.659 470.576 924.638 472.348L924.966 472.721C922.981 474.462 920.977 476.202 918.954 477.938L918.628 477.56C916.606 479.294 914.565 481.027 912.505 482.755L912.826 483.136C910.803 484.833 908.762 486.527 906.703 488.218L906.387 487.834C904.333 489.522 902.261 491.205 900.172 492.886L900.484 493.273C898.419 494.934 896.338 496.593 894.239 498.246L893.93 497.855C891.846 499.496 889.747 501.134 887.631 502.767L887.935 503.161C885.829 504.786 883.707 506.406 881.569 508.023L881.268 507.628C879.158 509.224 877.032 510.816 874.89 512.403L875.187 512.803C873.045 514.391 870.886 515.975 868.713 517.554L868.42 517.152C866.282 518.706 864.129 520.255 861.961 521.799L862.25 522.203C860.083 523.746 857.903 525.286 855.707 526.82L855.423 526.412C853.246 527.933 851.056 529.448 848.852 530.958L849.134 531.368C846.945 532.868 844.742 534.36 842.526 535.849L842.249 535.438C840.036 536.925 837.81 538.405 835.57 539.881L835.844 540.297C833.635 541.753 831.411 543.203 829.176 544.648L828.905 544.231C826.671 545.675 824.424 547.114 822.164 548.547L822.429 548.965C820.186 550.388 817.931 551.806 815.663 553.216L815.4 552.793C813.147 554.194 810.88 555.589 808.602 556.978L808.861 557.402C806.584 558.791 804.296 560.175 801.995 561.552L801.739 561.124C799.467 562.483 797.183 563.836 794.888 565.182L795.139 565.61C792.843 566.957 790.536 568.298 788.217 569.632L787.969 569.2C786.811 569.867 785.649 570.531 784.485 571.195C783.321 571.858 782.156 572.517 780.992 573.174L781.238 573.607C778.908 574.921 776.577 576.22 774.248 577.508L774.006 577.075C771.678 578.362 769.349 579.636 767.021 580.897L767.259 581.334C764.902 582.611 762.543 583.872 760.187 585.123L759.954 584.684C757.598 585.935 755.241 587.173 752.886 588.396L753.117 588.837C750.747 590.068 748.377 591.284 746.009 592.488L745.784 592.047C743.399 593.259 741.015 594.458 738.632 595.643L738.854 596.088C736.471 597.273 734.089 598.446 731.71 599.604L731.491 599.156C729.079 600.329 726.67 601.489 724.262 602.633L724.476 603.081C722.064 604.227 719.657 605.361 717.25 606.479L717.04 606.027C714.617 607.153 712.197 608.263 709.779 609.359L709.985 609.812C707.546 610.917 705.109 612.007 702.676 613.083L702.476 612.63C700.042 613.706 697.611 614.768 695.184 615.814L695.381 616.27C692.914 617.334 690.45 618.382 687.991 619.415L687.798 618.956C685.34 619.988 682.886 621.004 680.437 622.005L680.625 622.465C678.143 623.479 675.667 624.478 673.195 625.46L673.01 624.997C670.526 625.984 668.046 626.954 665.572 627.909L665.752 628.374C663.259 629.336 660.771 630.28 658.289 631.208L658.113 630.743C655.602 631.682 653.097 632.606 650.598 633.511L650.767 633.978C648.263 634.886 645.765 635.778 643.273 636.651L643.108 636.182C640.571 637.072 638.04 637.943 635.516 638.798L635.676 639.27C633.151 640.125 630.632 640.96 628.122 641.78L627.968 641.308C625.413 642.142 622.866 642.957 620.328 643.754L620.477 644.228C617.928 645.028 615.387 645.81 612.855 646.574L612.711 646.098C610.143 646.872 607.583 647.627 605.034 648.362L605.172 648.84C602.599 649.582 600.037 650.306 597.484 651.009L597.351 650.528C594.768 651.239 592.196 651.93 589.635 652.601L589.762 653.084C587.167 653.763 584.582 654.421 582.01 655.059L581.89 654.575C579.292 655.22 576.706 655.843 574.132 656.444L574.245 656.929C571.63 657.54 569.027 658.13 566.438 658.698L566.331 658.213C563.717 658.786 561.116 659.336 558.529 659.864L558.628 660.352C555.994 660.89 553.375 661.404 550.77 661.895L550.678 661.407C548.046 661.904 545.43 662.376 542.829 662.825L542.914 663.315C540.265 663.772 537.632 664.206 535.017 664.613L534.939 664.12C532.288 664.533 529.655 664.92 527.041 665.282L527.109 665.776C524.448 666.144 521.806 666.484 519.185 666.798L519.125 666.303C516.454 666.624 513.803 666.917 511.174 667.181L511.225 667.677C508.559 667.946 505.914 668.185 503.293 668.397L503.252 667.899C500.561 668.116 497.893 668.303 495.251 668.459L495.28 668.956C492.61 669.113 489.966 669.241 487.348 669.336L487.329 668.838C484.624 668.937 481.948 669.002 479.3 669.034L479.306 669.532C476.615 669.565 473.954 669.564 471.324 669.528L471.331 669.029C468.644 668.992 465.988 668.919 463.366 668.809L463.347 669.307C460.639 669.194 457.968 669.043 455.333 668.853L455.369 668.356C452.693 668.163 450.054 667.93 447.455 667.657L447.403 668.153C444.712 667.87 442.064 667.544 439.459 667.176L439.529 666.682C436.85 666.303 434.218 665.878 431.634 665.407L431.545 665.899C428.891 665.415 426.286 664.883 423.733 664.304L423.843 663.818C421.219 663.223 418.649 662.576 416.137 661.878L416.003 662.358C413.383 661.631 410.825 660.846 408.328 660.007L408.487 659.536C405.927 658.675 403.433 657.756 401.009 656.778L400.823 657.239C398.316 656.228 395.882 655.153 393.523 654.015L393.74 653.566C391.319 652.398 388.978 651.164 386.72 649.862L386.471 650.294C384.131 648.946 381.879 647.525 379.717 646.032L380 645.622C377.789 644.096 375.673 642.494 373.655 640.816L373.337 641.199C371.269 639.478 369.303 637.678 367.443 635.798L367.797 635.449C365.925 633.557 364.162 631.585 362.51 629.531L362.122 629.843C360.452 627.767 358.896 625.608 357.455 623.366L357.873 623.098C357.157 621.984 356.471 620.85 355.813 619.695C355.155 618.54 354.529 617.37 353.937 616.186L353.493 616.408C352.3 614.025 351.236 611.586 350.303 609.091L350.77 608.917C349.847 606.448 349.05 603.924 348.378 601.35L347.895 601.476C347.228 598.917 346.682 596.308 346.258 593.651L346.75 593.573C346.336 590.982 346.038 588.345 345.853 585.664L345.355 585.698C345.175 583.077 345.101 580.416 345.135 577.715L345.634 577.721C345.667 575.115 345.8 572.472 346.03 569.795L345.533 569.751C345.758 567.141 346.075 564.499 346.484 561.827L346.977 561.903C347.373 559.319 347.854 556.706 348.42 554.066L347.933 553.961C348.485 551.386 349.115 548.785 349.826 546.16L350.307 546.291C350.989 543.773 351.744 541.234 352.571 538.673L352.096 538.52C352.901 536.028 353.771 533.516 354.71 530.987L355.179 531.162C356.093 528.699 357.07 526.218 358.111 523.721L357.649 523.529C358.661 521.1 359.732 518.656 360.862 516.198L361.316 516.407C362.407 514.032 363.552 511.644 364.752 509.243L364.305 509.019C365.486 506.656 366.719 504.282 368.003 501.896L368.443 502.134C369.686 499.823 370.977 497.502 372.316 495.172L371.883 494.922C373.193 492.641 374.55 490.352 375.951 488.054L376.377 488.315C377.755 486.054 379.177 483.786 380.642 481.51L380.223 481.239C381.64 479.036 383.099 476.826 384.597 474.611L385.01 474.89C386.492 472.697 388.013 470.498 389.573 468.294L389.165 468.004C390.684 465.857 392.24 463.705 393.831 461.549L394.232 461.846C395.801 459.72 397.405 457.59 399.044 455.456L398.648 455.152C400.256 453.057 401.896 450.958 403.569 448.857L403.961 449.169C405.605 447.105 407.282 445.038 408.99 442.969L408.604 442.65C410.289 440.608 412.005 438.565 413.75 436.52L414.129 436.843C415.841 434.836 417.582 432.827 419.352 430.816L418.98 430.486C420.731 428.498 422.509 426.507 424.315 424.516L424.684 424.851C426.458 422.896 428.258 420.939 430.085 418.983L429.722 418.643C431.531 416.706 433.366 414.768 435.227 412.831L435.586 413.176C437.417 411.269 439.272 409.363 441.151 407.457L440.797 407.106C442.657 405.22 444.541 403.332 446.449 401.447L446.801 401.803C448.684 399.943 450.591 398.083 452.52 396.224L452.174 395.864C454.081 394.027 456.011 392.192 457.962 390.358L458.302 390.722C460.236 388.904 462.191 387.088 464.166 385.274L463.83 384.906C465.778 383.118 467.748 381.332 469.737 379.548L470.068 379.919C472.049 378.142 474.049 376.367 476.07 374.596L475.742 374.222C477.728 372.48 479.731 370.74 481.755 369.005L482.08 369.384C484.102 367.649 486.143 365.917 488.203 364.188L487.883 363.806C489.906 362.109 491.947 360.416 494.005 358.725L494.321 359.109C496.375 357.422 498.447 355.738 500.536 354.058L500.225 353.669C502.29 352.008 504.371 350.35 506.47 348.696L506.779 349.089C508.862 347.448 510.961 345.81 513.077 344.177L512.774 343.781C514.879 342.156 517.002 340.536 519.14 338.919L519.44 339.316C521.55 337.72 523.677 336.128 525.818 334.54L525.521 334.14C527.664 332.551 529.822 330.967 531.996 329.388L532.288 329.791C534.426 328.238 536.58 326.688 538.747 325.144L538.459 324.739C540.626 323.196 542.806 321.656 545.001 320.122L545.286 320.531C547.462 319.011 549.652 317.496 551.856 315.986L551.575 315.574C553.763 314.075 555.967 312.582 558.183 311.093L558.46 311.506C560.672 310.019 562.899 308.538 565.138 307.063L564.864 306.646C567.074 305.189 569.298 303.739 571.533 302.295L571.803 302.713C574.037 301.269 576.285 299.83 578.545 298.397L578.28 297.977C580.523 296.555 582.778 295.137 585.046 293.727L585.308 294.151C587.562 292.749 589.828 291.354 592.106 289.965L591.847 289.541C594.125 288.152 596.413 286.767 598.714 285.391L598.969 285.819C601.241 284.461 603.525 283.108 605.82 281.762L605.57 281.332C607.866 279.985 610.173 278.644 612.491 277.31L612.739 277.744C613.898 277.077 615.059 276.412 616.223 275.749C617.387 275.086 618.552 274.427 619.716 273.77L619.471 273.335C621.801 272.022 624.131 270.722 626.461 269.434L626.702 269.869C629.03 268.582 631.359 267.308 633.687 266.047L633.449 265.608C635.807 264.331 638.165 263.07 640.522 261.82L640.754 262.259C643.111 261.009 645.467 259.771 647.822 258.548L647.592 258.106C649.962 256.874 652.332 255.658 654.699 254.454L654.925 254.897C657.31 253.684 659.694 252.486 662.076 251.301L661.855 250.855C664.238 249.669 666.619 248.496 668.999 247.339L669.218 247.787C671.629 246.614 674.039 245.455 676.446 244.31L676.233 243.862C678.644 242.715 681.052 241.581 683.458 240.464L683.668 240.916C686.091 239.791 688.512 238.68 690.929 237.584L690.724 237.131C693.163 236.025 695.599 234.935 698.032 233.859L698.233 234.314C700.667 233.238 703.098 232.176 705.525 231.13L705.328 230.672C707.795 229.608 710.258 228.56 712.718 227.528L712.91 227.988C715.368 226.956 717.822 225.939 720.271 224.939L720.084 224.478C722.565 223.464 725.042 222.464 727.514 221.483L727.698 221.946C730.182 220.959 732.662 219.989 735.136 219.035L734.957 218.568C737.45 217.607 739.938 216.663 742.42 215.734L742.595 216.201C745.106 215.261 747.611 214.338 750.11 213.432L749.941 212.964C752.446 212.057 754.944 211.165 757.435 210.291L757.6 210.762C760.137 209.872 762.668 209 765.192 208.146L765.032 207.673C767.558 206.818 770.076 205.982 772.587 205.163L772.741 205.636C775.295 204.802 777.842 203.987 780.381 203.19L780.232 202.715C782.781 201.914 785.322 201.132 787.854 200.369L787.997 200.846C790.565 200.072 793.125 199.317 795.675 198.581L795.537 198.103C798.11 197.36 800.672 196.636 803.225 195.934L803.358 196.415C805.94 195.704 808.512 195.013 811.074 194.343L810.947 193.86L810.947 193.858C813.542 193.179 816.126 192.522 818.699 191.884L818.818 192.368C821.416 191.724 824.002 191.101 826.576 190.499L826.463 190.014C829.079 189.402 831.682 188.812 834.271 188.244L834.377 188.731C836.992 188.158 839.593 187.607 842.179 187.079L842.08 186.59C844.715 186.052 847.334 185.538 849.938 185.047L850.03 185.537C852.662 185.04 855.279 184.568 857.879 184.119L857.795 183.628C860.444 183.17 863.077 182.737 865.692 182.329L865.769 182.824C868.42 182.411 871.053 182.023 873.667 181.662L873.599 181.167L873.6 181.166C876.26 180.798 878.902 180.459 881.524 180.144L881.583 180.64C884.254 180.32 886.905 180.027 889.534 179.762L889.483 179.265C892.079 179.004 894.654 178.769 897.207 178.562L897.416 178.546L897.456 179.044C900.148 178.828 902.815 178.641 905.457 178.485L905.429 177.987C908.098 177.829 910.743 177.702 913.361 177.606L913.379 178.106C916.084 178.007 918.761 177.941 921.408 177.909L921.403 177.41C924.093 177.377 926.754 177.378 929.384 177.415L929.377 177.915C932.065 177.952 934.72 178.025 937.342 178.134L937.362 177.635C939.582 177.728 941.778 177.846 943.949 177.99L945.375 178.089L945.339 178.588C948.016 178.781 950.654 179.014 953.253 179.287L953.306 178.79C955.996 179.072 958.644 179.398 961.249 179.767L961.18 180.262C963.858 180.641 966.49 181.066 969.074 181.536L969.164 181.044C971.818 181.527 974.422 182.059 976.976 182.639L976.865 183.125C979.489 183.721 982.059 184.368 984.572 185.066L984.705 184.584C987.325 185.312 989.884 186.096 992.381 186.936L992.222 187.408C994.781 188.269 997.275 189.187 999.699 190.166L999.886 189.703C1002.39 190.715 1004.83 191.789 1007.19 192.927L1006.97 193.378C1009.39 194.545 1011.73 195.78 1013.99 197.082L1014.24 196.648C1016.58 197.997 1018.83 199.418 1020.99 200.91L1020.71 201.321C1022.92 202.848 1025.04 204.45 1027.05 206.128L1027.37 205.744C1029.44 207.464 1031.41 209.264 1033.27 211.144L1032.91 211.495C1034.78 213.386 1036.55 215.359 1038.2 217.413L1038.59 217.099C1040.26 219.175 1041.81 221.334 1043.25 223.576L1042.84 223.846C1043.55 224.96 1044.24 226.094 1044.9 227.249C1045.55 228.404 1046.18 229.574 1046.77 230.758L1047.22 230.534Z" stroke="#FFF0D6" stroke-dasharray="8 8"/>
<path opacity="0.6" d="M821.847 540.459L820.927 541.047L818.639 539.004L815.904 540.755L816.8 543.689L815.857 544.292L813.045 534.756L814.389 533.896L821.847 540.459ZM814.198 535.181L815.607 539.798L817.894 538.334L814.304 535.114L814.198 535.181ZM825.657 536.854L827.895 535.392L828.408 536.177L826.345 537.525C825.466 538.099 824.622 537.831 824.071 536.987L819.997 530.752L817.817 532.177L817.304 531.392L820.351 529.4L825.137 536.725C825.291 536.96 825.457 536.985 825.657 536.854ZM833.1 528.563L833.427 529.053L829.281 531.819L829.312 531.865C830.236 533.251 831.215 533.356 832.205 532.695L832.263 532.656C832.997 532.167 833.358 531.522 833.151 530.684L834.002 530.116C834.491 531.506 833.96 532.652 832.784 533.437L832.725 533.475C831.246 534.462 829.697 534.284 828.461 532.432L828.104 531.897C826.861 530.033 827.311 528.538 828.778 527.559L828.836 527.52C830.315 526.534 831.865 526.712 833.1 528.563ZM829.357 528.301L829.299 528.34C828.355 528.969 828.057 529.858 828.822 531.132L832.118 528.933C831.236 527.737 830.3 527.671 829.357 528.301ZM837.779 529.911L836.819 530.565L836.968 526.11L833.123 524.816L834.106 524.146L837.013 525.181L837.129 525.102L837.23 522.018L838.213 521.348L838.009 525.4L842.21 526.892L841.239 527.554L837.972 526.34L837.857 526.419L837.779 529.911ZM845.932 519.161L847.811 521.862L848.811 521.166L849.347 521.936L847.6 523.151L846.747 522.073L846.621 522.161C846.773 522.943 846.508 524.082 845.405 524.85L845.359 524.882C844.577 525.425 843.423 525.58 842.703 524.546L842.655 524.477C841.984 523.512 842.438 522.547 843.625 521.483L845.281 519.99L845.081 519.702C844.417 518.749 843.698 518.499 842.744 519.162L842.698 519.194C841.847 519.786 841.633 520.532 842.165 521.493L841.28 522.108C840.479 520.687 840.837 519.363 842.204 518.412L842.227 518.396C843.744 517.34 844.933 517.725 845.932 519.161ZM844.965 524.047L845.011 524.015C845.954 523.359 846.68 522.001 845.76 520.679L845.744 520.656L844.188 522.046C843.314 522.825 843.099 523.35 843.467 523.878L843.515 523.947C843.843 524.418 844.391 524.446 844.965 524.047Z" fill="#FFF0D6"/>
<path d="M848.61 155.189H847.518L846.692 152.235H843.444L842.618 155.189H841.498L844.27 145.641H845.866L848.61 155.189ZM845.012 146.621L843.71 151.269H846.426L845.138 146.621H845.012ZM856.403 145.641V146.607H853.967V154.223H856.403V155.189H850.495V154.223H852.917V146.607H850.495V145.641H856.403Z" fill="#FFF0D6"/>
<path d="M394.03 380.641H397.082C398.944 380.641 400.218 381.663 400.218 384.057V386.773C400.218 389.167 398.944 390.189 397.082 390.189H394.03V380.641ZM399.182 386.773V384.057C399.182 382.237 398.454 381.607 397.082 381.607H395.066V389.223H397.082C398.454 389.223 399.182 388.593 399.182 386.773ZM408.459 386.451V387.039H403.475V387.095C403.475 388.761 404.231 389.391 405.421 389.391H405.491C406.373 389.391 407.031 389.055 407.325 388.243H408.347C407.983 389.671 406.905 390.329 405.491 390.329H405.421C403.643 390.329 402.453 389.321 402.453 387.095V386.451C402.453 384.211 403.657 383.217 405.421 383.217H405.491C407.269 383.217 408.459 384.225 408.459 386.451ZM405.491 384.155H405.421C404.287 384.155 403.545 384.729 403.475 386.213H407.437C407.367 384.729 406.625 384.155 405.491 384.155ZM413.998 390.329H413.928C411.954 390.329 410.96 389.447 410.904 387.935H411.926C411.968 388.873 412.416 389.433 413.928 389.433H413.998C415.328 389.433 415.79 388.985 415.79 388.327C415.79 387.501 414.936 387.333 413.816 387.109C412.444 386.829 411.086 386.549 411.086 385.135C411.086 383.987 412.038 383.217 413.69 383.217H413.76C415.566 383.217 416.546 384.071 416.602 385.555H415.58C415.538 384.645 415.09 384.099 413.774 384.099H413.69C412.556 384.099 412.08 384.533 412.08 385.121C412.08 385.905 412.892 386.073 413.998 386.283C415.384 386.549 416.784 386.829 416.784 388.313C416.784 389.573 415.72 390.329 413.998 390.329ZM421.79 379.997H423.47V381.649H421.79V379.997ZM423.498 389.251H425.85V390.189H423.722C422.672 390.189 422.112 389.503 422.112 388.495V384.295H419.41V383.357H423.148V388.859C423.148 389.139 423.26 389.251 423.498 389.251ZM431.879 392.919H428.113V391.981H432.089C432.341 391.981 432.467 391.869 432.467 391.589V389.027H432.327C431.991 389.783 431.291 390.329 430.255 390.329H430.213C428.743 390.329 427.637 389.307 427.637 387.095V386.437C427.637 384.225 428.743 383.217 430.171 383.217H430.227C431.263 383.217 431.977 383.749 432.313 384.477H432.453V383.357H433.489V391.225C433.489 392.233 432.929 392.919 431.879 392.919ZM430.465 389.363H430.521C431.543 389.363 432.453 388.775 432.453 387.039V386.465C432.453 384.799 431.543 384.183 430.521 384.183H430.465C429.415 384.183 428.673 384.771 428.673 386.465V387.039C428.673 388.747 429.415 389.363 430.465 389.363ZM437.207 390.189H436.171V383.357H437.207V384.477H437.333C437.669 383.707 438.481 383.217 439.461 383.217H439.517C441.071 383.217 441.883 384.183 441.883 386.059V390.189H440.847V386.101C440.847 384.701 440.287 384.183 439.293 384.183H439.237C438.159 384.183 437.207 384.785 437.207 386.227V390.189Z" fill="#FFF0D6"/>
<path d="M865.33 642.511V642.553C865.33 644.387 864.42 645.269 862.908 645.409V645.479L865.204 649.189H864.028L861.718 645.423H860.318V649.189H859.282V639.641H862.46C864.238 639.641 865.33 640.495 865.33 642.511ZM864.294 642.553V642.511C864.294 641.055 863.734 640.607 862.46 640.607H860.318V644.457H862.46C863.734 644.457 864.294 644.009 864.294 642.553ZM872.927 644.961V648.251H874.145V649.189H872.017L871.933 647.817H871.779C871.457 648.545 870.589 649.329 869.245 649.329H869.189C868.237 649.329 867.201 648.797 867.201 647.537V647.453C867.201 646.277 868.125 645.745 869.707 645.549L871.919 645.269V644.919C871.919 643.757 871.471 643.141 870.309 643.141H870.253C869.217 643.141 868.615 643.631 868.503 644.723H867.425C867.579 643.099 868.629 642.217 870.295 642.217H870.323C872.171 642.217 872.927 643.211 872.927 644.961ZM869.343 648.419H869.399C870.547 648.419 871.919 647.719 871.919 646.109V646.081L869.847 646.333C868.685 646.473 868.209 646.781 868.209 647.425V647.509C868.209 648.083 868.643 648.419 869.343 648.419ZM879.263 649.329H879.221C878.185 649.329 877.485 648.783 877.149 648.027H877.009V651.905H875.987V642.357H877.023V643.477H877.163C877.499 642.749 878.213 642.217 879.249 642.217H879.305C880.733 642.217 881.853 643.225 881.853 645.437V646.095C881.853 648.307 880.733 649.329 879.263 649.329ZM878.955 648.363H879.011C880.061 648.363 880.817 647.747 880.817 646.039V645.465C880.817 643.771 880.061 643.183 879.011 643.183H878.955C877.933 643.183 877.023 643.799 877.023 645.465V646.039C877.023 647.775 877.933 648.363 878.955 648.363ZM886.79 638.997H888.47V640.649H886.79V638.997ZM888.498 648.251H890.85V649.189H888.722C887.672 649.189 887.112 648.503 887.112 647.495V643.295H884.41V642.357H888.148V647.859C888.148 648.139 888.26 648.251 888.498 648.251ZM895.254 649.329H895.212C893.742 649.329 892.622 648.307 892.622 646.095V645.437C892.622 643.225 893.742 642.217 895.17 642.217H895.226C896.262 642.217 896.976 642.749 897.312 643.477H897.452V639.109H898.488V649.189H897.466V648.027H897.326C896.99 648.783 896.29 649.329 895.254 649.329ZM895.464 648.363H895.52C896.542 648.363 897.452 647.775 897.452 646.039V645.465C897.452 643.799 896.542 643.183 895.52 643.183H895.464C894.414 643.183 893.658 643.771 893.658 645.465V646.039C893.658 647.747 894.414 648.363 895.464 648.363ZM909.593 639.641H912.967C914.745 639.641 915.837 640.495 915.837 642.511V642.553C915.837 644.569 914.745 645.423 912.967 645.423H910.629V649.189H909.593V639.641ZM914.801 642.553V642.511C914.801 641.055 914.241 640.607 912.967 640.607H910.629V644.457H912.967C914.241 644.457 914.801 644.009 914.801 642.553ZM924.176 643.309H922.524C921.152 643.309 920.55 644.037 920.55 645.241V648.251H923.308V649.189H917.75V648.251H919.528V643.295H917.75V642.357H920.466L920.55 643.645H920.69C920.984 642.847 921.488 642.357 922.622 642.357H924.176V643.309ZM929.252 649.329H929.182C927.404 649.329 926.214 648.321 926.214 646.095V645.451C926.214 643.211 927.418 642.217 929.182 642.217H929.252C931.03 642.217 932.22 643.225 932.22 645.451V646.095C932.22 648.335 931.016 649.329 929.252 649.329ZM929.182 648.391H929.252C930.442 648.391 931.198 647.761 931.198 646.095V645.451C931.198 643.785 930.442 643.155 929.252 643.155H929.182C927.992 643.155 927.236 643.785 927.236 645.451V646.095C927.236 647.761 927.992 648.391 929.182 648.391ZM940.615 642.357V643.295H937.353V647.859C937.353 648.139 937.479 648.251 937.703 648.251H940.615V649.189H937.927C936.877 649.189 936.317 648.503 936.317 647.495V643.295H933.993V642.357H936.317V640.691L937.353 640.607V642.357H940.615ZM946.042 649.329H945.972C944.194 649.329 943.004 648.321 943.004 646.095V645.451C943.004 643.211 944.208 642.217 945.972 642.217H946.042C947.82 642.217 949.01 643.225 949.01 645.451V646.095C949.01 648.335 947.806 649.329 946.042 649.329ZM945.972 648.391H946.042C947.232 648.391 947.988 647.761 947.988 646.095V645.451C947.988 643.785 947.232 643.155 946.042 643.155H945.972C944.782 643.155 944.026 643.785 944.026 645.451V646.095C944.026 647.761 944.782 648.391 945.972 648.391ZM957.404 642.357V643.295H954.142V647.859C954.142 648.139 954.268 648.251 954.492 648.251H957.404V649.189H954.716C953.666 649.189 953.106 648.503 953.106 647.495V643.295H950.782V642.357H953.106V640.691L954.142 640.607V642.357H957.404ZM962.873 648.237L965.029 642.357H966.107L963.125 650.225C962.747 651.233 962.103 651.919 960.913 651.919H959.653V650.953H961.361C961.725 650.953 961.879 650.813 961.991 650.491L962.523 649.189H962.047L959.471 642.357H960.549L962.677 648.237H962.873ZM971.603 649.329H971.561C970.525 649.329 969.825 648.783 969.489 648.027H969.349V651.905H968.327V642.357H969.363V643.477H969.503C969.839 642.749 970.553 642.217 971.589 642.217H971.645C973.073 642.217 974.193 643.225 974.193 645.437V646.095C974.193 648.307 973.073 649.329 971.603 649.329ZM971.295 648.363H971.351C972.401 648.363 973.157 647.747 973.157 646.039V645.465C973.157 643.771 972.401 643.183 971.351 643.183H971.295C970.273 643.183 969.363 643.799 969.363 645.465V646.039C969.363 647.775 970.273 648.363 971.295 648.363ZM979.13 638.997H980.81V640.649H979.13V638.997ZM980.838 648.251H983.19V649.189H981.062C980.012 649.189 979.452 648.503 979.452 647.495V643.295H976.75V642.357H980.488V647.859C980.488 648.139 980.6 648.251 980.838 648.251ZM986.152 649.189H985.116V642.357H986.152V643.477H986.278C986.614 642.707 987.426 642.217 988.406 642.217H988.462C990.016 642.217 990.828 643.183 990.828 645.059V649.189H989.792V645.101C989.792 643.701 989.232 643.183 988.238 643.183H988.182C987.104 643.183 986.152 643.785 986.152 645.227V649.189ZM997.613 651.919H993.847V650.981H997.823C998.075 650.981 998.201 650.869 998.201 650.589V648.027H998.061C997.725 648.783 997.025 649.329 995.989 649.329H995.947C994.477 649.329 993.371 648.307 993.371 646.095V645.437C993.371 643.225 994.477 642.217 995.905 642.217H995.961C996.997 642.217 997.711 642.749 998.047 643.477H998.187V642.357H999.223V650.225C999.223 651.233 998.663 651.919 997.613 651.919ZM996.199 648.363H996.255C997.277 648.363 998.187 647.775 998.187 646.039V645.465C998.187 643.799 997.277 643.183 996.255 643.183H996.199C995.149 643.183 994.407 643.771 994.407 645.465V646.039C994.407 647.747 995.149 648.363 996.199 648.363Z" fill="#FFF0D6"/>
<circle cx="462.854" cy="386.189" r="6" fill="#FF5100"/>
<circle cx="821.854" cy="151.189" r="6" fill="#FF5100"/>
<circle cx="832.854" cy="190.189" r="3" fill="#443D3F"/>
<circle cx="840.854" cy="643.189" r="6" fill="#FF5100"/>
<path d="M698.588 403.189H697.028L695.848 398.969H691.208L690.028 403.189H688.428L692.388 389.549H694.668L698.588 403.189ZM693.448 390.949L691.588 397.589H695.468L693.628 390.949H693.448ZM709.72 389.549V390.929H706.24V401.809H709.72V403.189H701.28V401.809H704.74V390.929H701.28V389.549H709.72Z" fill="#FFF0D6"/>
<path d="M643.763 411.549V412.929H640.283V423.809H643.763V425.189H635.323V423.809H638.783V412.929H635.323V411.549H643.763ZM648.935 425.189H647.455V415.429H648.935V417.029H649.115C649.595 415.929 650.755 415.229 652.155 415.229H652.235C654.455 415.229 655.615 416.609 655.615 419.289V425.189H654.135V419.349C654.135 417.349 653.335 416.609 651.915 416.609H651.835C650.295 416.609 648.935 417.469 648.935 419.529V425.189ZM667.827 415.429V416.769H663.167V423.289C663.167 423.689 663.347 423.849 663.667 423.849H667.827V425.189H663.987C662.487 425.189 661.687 424.209 661.687 422.769V416.769H658.367V415.429H661.687V413.049L663.167 412.929V415.429H667.827ZM679.82 419.849V420.689H672.7V420.769C672.7 423.149 673.78 424.049 675.48 424.049H675.58C676.84 424.049 677.78 423.569 678.2 422.409H679.66C679.14 424.449 677.6 425.389 675.58 425.389H675.48C672.94 425.389 671.24 423.949 671.24 420.769V419.849C671.24 416.649 672.96 415.229 675.48 415.229H675.58C678.12 415.229 679.82 416.669 679.82 419.849ZM675.58 416.569H675.48C673.86 416.569 672.8 417.389 672.7 419.509H678.36C678.26 417.389 677.2 416.569 675.58 416.569ZM692.312 416.789H689.952C687.992 416.789 687.132 417.829 687.132 419.549V423.849H691.072V425.189H683.132V423.849H685.672V416.769H683.132V415.429H687.012L687.132 417.269H687.332C687.752 416.129 688.472 415.429 690.092 415.429H692.312V416.789ZM703.044 419.149V423.849H704.784V425.189H701.744L701.624 423.229H701.404C700.944 424.269 699.704 425.389 697.784 425.389H697.704C696.344 425.389 694.864 424.629 694.864 422.829V422.709C694.864 421.029 696.184 420.269 698.444 419.989L701.604 419.589V419.089C701.604 417.429 700.964 416.549 699.304 416.549H699.224C697.744 416.549 696.884 417.249 696.724 418.809H695.184C695.404 416.489 696.904 415.229 699.284 415.229H699.324C701.964 415.229 703.044 416.649 703.044 419.149ZM697.924 424.089H698.004C699.644 424.089 701.604 423.089 701.604 420.789V420.749L698.644 421.109C696.984 421.309 696.304 421.749 696.304 422.669V422.789C696.304 423.609 696.924 424.089 697.924 424.089ZM711.556 425.389H711.456C708.916 425.389 707.216 423.949 707.216 420.769V419.849C707.216 416.649 708.936 415.229 711.456 415.229H711.556C713.796 415.229 715.476 416.349 715.676 418.769H714.196C714.016 417.189 712.996 416.569 711.556 416.569H711.456C709.756 416.569 708.676 417.469 708.676 419.849V420.769C708.676 423.149 709.756 424.049 711.456 424.049H711.556C712.976 424.049 714.036 423.429 714.196 421.849H715.676C715.476 424.269 713.796 425.389 711.556 425.389ZM727.788 415.429V416.769H723.128V423.289C723.128 423.689 723.308 423.849 723.628 423.849H727.788V425.189H723.948C722.448 425.189 721.648 424.209 721.648 422.769V416.769H718.328V415.429H721.648V413.049L723.128 412.929V415.429H727.788ZM734.84 410.629H737.24V412.989H734.84V410.629ZM737.28 423.849H740.64V425.189H737.6C736.1 425.189 735.3 424.209 735.3 422.769V416.769H731.44V415.429H736.78V423.289C736.78 423.689 736.94 423.849 737.28 423.849ZM747.533 425.389H747.433C744.893 425.389 743.193 423.949 743.193 420.769V419.849C743.193 416.649 744.913 415.229 747.433 415.229H747.533C750.073 415.229 751.773 416.669 751.773 419.849V420.769C751.773 423.969 750.053 425.389 747.533 425.389ZM747.433 424.049H747.533C749.233 424.049 750.313 423.149 750.313 420.769V419.849C750.313 417.469 749.233 416.569 747.533 416.569H747.433C745.733 416.569 744.653 417.469 744.653 419.849V420.769C744.653 423.149 745.733 424.049 747.433 424.049ZM756.865 425.189H755.385V415.429H756.865V417.029H757.045C757.525 415.929 758.685 415.229 760.085 415.229H760.165C762.385 415.229 763.545 416.609 763.545 419.289V425.189H762.065V419.349C762.065 417.349 761.265 416.609 759.845 416.609H759.765C758.225 416.609 756.865 417.469 756.865 419.529V425.189Z" fill="#FFF0D6"/>
<path d="M685.432 433.549V445.809H692.032V447.189H683.952V433.549H685.432ZM703.044 441.149V445.849H704.784V447.189H701.744L701.624 445.229H701.404C700.944 446.269 699.704 447.389 697.784 447.389H697.704C696.344 447.389 694.864 446.629 694.864 444.829V444.709C694.864 443.029 696.184 442.269 698.444 441.989L701.604 441.589V441.089C701.604 439.429 700.964 438.549 699.304 438.549H699.224C697.744 438.549 696.884 439.249 696.724 440.809H695.184C695.404 438.489 696.904 437.229 699.284 437.229H699.324C701.964 437.229 703.044 438.649 703.044 441.149ZM697.924 446.089H698.004C699.644 446.089 701.604 445.089 701.604 442.789V442.749L698.644 443.109C696.984 443.309 696.304 443.749 696.304 444.669V444.789C696.304 445.609 696.924 446.089 697.924 446.089ZM712.096 447.389H712.036C710.556 447.389 709.556 446.609 709.076 445.529H708.876V447.189H707.416V432.789H708.896V439.029H709.096C709.576 437.989 710.596 437.229 712.076 437.229H712.156C714.196 437.229 715.796 438.669 715.796 441.829V442.769C715.796 445.929 714.196 447.389 712.096 447.389ZM711.656 446.009H711.736C713.236 446.009 714.316 445.129 714.316 442.689V441.869C714.316 439.449 713.236 438.609 711.736 438.609H711.656C710.196 438.609 708.896 439.489 708.896 441.869V442.689C708.896 445.169 710.196 446.009 711.656 446.009Z" fill="#FFF0D6"/>
</svg>
