<svg width="1400" height="566" viewBox="0 0 1400 566" fill="none" xmlns="http://www.w3.org/2000/svg">
<rect width="1400" height="566" fill="#221D25"/>
<path opacity="0.3" d="M707.019 26.2024C709.695 26.2188 712.366 26.2509 715.029 26.3L715.021 26.7991C717.682 26.8482 720.337 26.9139 722.985 26.9954L723 26.4963C725.681 26.5788 728.355 26.677 731.022 26.7922L731.001 27.2913C733.667 27.4065 736.327 27.5381 738.979 27.6858L739.005 27.1868C741.673 27.3354 744.334 27.5017 746.986 27.6829L746.953 28.1809C749.623 28.3633 752.285 28.5616 754.938 28.7766L754.979 28.2786C757.634 28.4938 760.282 28.7253 762.921 28.9729L762.875 29.47C765.544 29.7204 768.205 29.9876 770.856 30.2708L770.909 29.7737V29.7727C773.565 30.0564 776.212 30.3579 778.85 30.6741L778.791 31.1702C781.444 31.4882 784.087 31.8225 786.721 32.1731L786.786 31.678C789.441 32.0314 792.086 32.4012 794.721 32.7874L794.648 33.2815C797.283 33.6676 799.908 34.0701 802.521 34.4885L802.6 33.9954C805.251 34.4198 807.892 34.8612 810.521 35.3186L810.437 35.8108C813.064 36.2678 815.681 36.7412 818.286 37.2307L818.378 36.7395C821.011 37.2342 823.632 37.7452 826.241 38.2727L826.144 38.7629C828.764 39.2927 831.373 39.8382 833.969 40.4006L834.073 39.9124C836.684 40.478 839.283 41.0601 841.868 41.6584L841.756 42.1458C844.367 42.7499 846.965 43.37 849.55 44.0071L849.668 43.5227C852.255 44.1604 854.829 44.8135 857.389 45.4836L857.263 45.967C859.861 46.6473 862.445 47.3446 865.015 48.0579L865.147 47.5764C867.72 48.2907 870.279 49.0209 872.822 49.7678L872.682 50.2473C875.253 51.0023 877.809 51.7747 880.349 52.5627L880.496 52.0862C883.051 52.879 885.592 53.6863 888.115 54.512V54.5129L887.96 54.9875C890.501 55.819 893.026 56.668 895.534 57.5325L895.696 57.0598C898.231 57.9334 900.748 58.824 903.248 59.7307L903.079 60.1995C905.588 61.1093 908.079 62.036 910.552 62.9788L910.729 62.512C913.239 63.4686 915.73 64.4428 918.202 65.4329L918.018 65.8967C920.491 66.8873 922.946 67.8947 925.381 68.9182L925.574 68.4573C928.054 69.4997 930.514 70.559 932.954 71.635H932.955L932.753 72.092C935.19 73.1669 937.607 74.2586 940.003 75.3665L940.212 74.9124C942.655 76.0423 945.077 77.19 947.477 78.3538L947.259 78.803C949.658 79.9663 952.035 81.1465 954.389 82.343L954.614 81.8987C957.012 83.1177 959.388 84.3529 961.738 85.6057L961.505 86.0471C963.859 87.3016 966.189 88.5728 968.494 89.8606L968.737 89.425C971.086 90.737 973.409 92.0664 975.706 93.4124L975.454 93.843C977.756 95.1919 980.033 96.5574 982.282 97.9397L982.543 97.5149C984.835 98.9236 987.1 100.349 989.337 101.792L989.067 102.211C991.309 103.657 993.522 105.121 995.707 106.601L995.986 106.187C998.215 107.697 1000.41 109.224 1002.58 110.768L1002.29 111.175C1004.47 112.721 1006.61 114.284 1008.72 115.864L1009.01 115.463C1011.17 117.079 1013.3 118.712 1015.39 120.362L1015.08 120.754C1017.17 122.406 1019.23 124.075 1021.26 125.76L1021.58 125.376C1023.65 127.099 1025.69 128.839 1027.68 130.596L1027.36 130.972C1029.36 132.735 1031.33 134.516 1033.26 136.313L1033.6 135.947C1035.57 137.777 1037.5 139.627 1039.39 141.491L1039.04 141.847C1040.95 143.726 1042.82 145.623 1044.64 147.536L1045 147.191C1046.85 149.131 1048.66 151.088 1050.43 153.062L1050.06 153.396C1051.85 155.394 1053.59 157.41 1055.29 159.442L1055.67 159.121C1057.39 161.171 1059.06 163.237 1060.68 165.32L1060.29 165.627C1061.94 167.746 1063.54 169.882 1065.1 172.033L1065.5 171.741C1067.07 173.911 1068.59 176.097 1070.06 178.3L1069.64 178.577C1071.13 180.804 1072.56 183.047 1073.94 185.306L1074.37 185.045C1075.77 187.334 1077.11 189.638 1078.41 191.958L1077.97 192.201C1079.27 194.53 1080.51 196.874 1081.69 199.234L1082.14 199.009C1083.34 201.408 1084.49 203.823 1085.58 206.253L1085.12 206.458C1086.21 208.892 1087.24 211.341 1088.21 213.805L1088.68 213.621C1089.66 216.108 1090.58 218.61 1091.44 221.126V221.127L1090.96 221.288C1091.82 223.812 1092.62 226.35 1093.35 228.902L1093.83 228.764C1094.57 231.329 1095.24 233.907 1095.85 236.499L1095.37 236.613C1095.97 239.202 1096.52 241.806 1096.99 244.421L1097.48 244.332C1097.96 246.953 1098.37 249.586 1098.71 252.232L1098.22 252.296C1098.56 254.93 1098.83 257.576 1099.04 260.233L1099.53 260.195C1099.74 262.844 1099.88 265.504 1099.95 268.175L1099.45 268.188C1099.48 269.519 1099.5 270.853 1099.5 272.189C1099.5 273.525 1099.48 274.859 1099.45 276.19L1099.95 276.201C1099.88 278.872 1099.74 281.532 1099.53 284.182L1099.04 284.145C1098.83 286.802 1098.56 289.447 1098.22 292.081L1098.71 292.145C1098.37 294.79 1097.96 297.423 1097.48 300.044L1096.99 299.956C1096.52 302.572 1095.97 305.174 1095.37 307.764L1095.85 307.877C1095.24 310.469 1094.57 313.048 1093.83 315.613L1093.35 315.476C1092.62 318.027 1091.82 320.565 1090.96 323.089L1091.44 323.25C1090.58 325.766 1089.66 328.268 1088.68 330.755L1088.21 330.573C1087.24 333.036 1086.21 335.485 1085.12 337.919L1085.58 338.122C1084.49 340.553 1083.34 342.968 1082.14 345.367L1081.69 345.144C1080.51 347.503 1079.27 349.847 1077.97 352.176L1078.41 352.418C1077.11 354.739 1075.77 357.043 1074.37 359.331L1073.94 359.072C1072.56 361.33 1071.13 363.573 1069.64 365.8L1070.06 366.076C1068.59 368.279 1067.07 370.465 1065.5 372.635L1065.1 372.343C1063.54 374.495 1061.94 376.631 1060.29 378.75L1060.68 379.057C1059.06 381.14 1057.39 383.206 1055.67 385.255L1055.29 384.936C1053.59 386.968 1051.85 388.983 1050.06 390.982L1050.43 391.314C1048.66 393.288 1046.85 395.246 1045 397.186L1044.64 396.841C1042.82 398.754 1040.95 400.651 1039.04 402.531L1039.39 402.885C1037.5 404.75 1035.57 406.599 1033.6 408.43L1033.26 408.065C1031.33 409.862 1029.36 411.642 1027.36 413.406L1027.68 413.781C1025.69 415.538 1023.65 417.277 1021.58 419L1021.26 418.617C1019.23 420.303 1017.17 421.972 1015.08 423.623L1015.39 424.015C1013.3 425.665 1011.17 427.298 1009.01 428.913L1008.72 428.514C1006.61 430.094 1004.47 431.656 1002.29 433.202L1002.58 433.609C1000.41 435.153 998.215 436.68 995.986 438.19L995.707 437.777C993.522 439.256 991.309 440.72 989.067 442.166L989.337 442.584C987.1 444.027 984.835 445.453 982.543 446.862L982.282 446.438C980.033 447.82 977.756 449.186 975.454 450.534L975.706 450.964C973.409 452.31 971.086 453.639 968.737 454.951L968.495 454.516C966.19 455.804 963.859 457.076 961.505 458.33L961.739 458.77C959.388 460.023 957.013 461.259 954.614 462.478L954.389 462.034C952.035 463.231 949.658 464.411 947.259 465.574L947.477 466.023C945.077 467.186 942.655 468.334 940.212 469.464L940.003 469.011C937.607 470.119 935.19 471.211 932.753 472.285L932.954 472.741C930.514 473.817 928.054 474.877 925.574 475.919L925.381 475.459C922.946 476.483 920.491 477.49 918.018 478.481L918.203 478.944C915.731 479.934 913.239 480.908 910.729 481.865L910.553 481.399C908.08 482.341 905.588 483.267 903.079 484.177L903.248 484.646C900.748 485.552 898.231 486.443 895.696 487.317L895.534 486.845C893.026 487.709 890.501 488.557 887.96 489.389L888.115 489.864C885.592 490.689 883.052 491.497 880.496 492.29L880.349 491.815C877.809 492.603 875.253 493.375 872.683 494.13L872.822 494.609C870.279 495.356 867.72 496.086 865.147 496.8L865.015 496.32C862.445 497.033 859.861 497.73 857.263 498.41L857.389 498.893C854.829 499.563 852.256 500.216 849.669 500.854L849.55 500.37C846.965 501.007 844.367 501.628 841.756 502.232L841.868 502.718C839.282 503.316 836.684 503.898 834.073 504.464L833.969 503.977C831.373 504.539 828.764 505.085 826.144 505.615L826.242 506.104C823.633 506.631 821.011 507.142 818.378 507.637L818.286 507.147C815.681 507.636 813.065 508.11 810.438 508.567L810.521 509.058C807.892 509.515 805.251 509.957 802.6 510.381L802.521 509.889C799.908 510.307 797.284 510.71 794.649 511.096L794.721 511.589C792.086 511.975 789.441 512.345 786.786 512.698L786.721 512.204C784.087 512.555 781.444 512.889 778.791 513.207L778.85 513.702C776.212 514.019 773.565 514.319 770.909 514.603L770.856 514.107C768.205 514.39 765.544 514.657 762.875 514.907L762.921 515.404C760.282 515.651 757.634 515.883 754.979 516.098L754.939 515.601C752.286 515.816 749.623 516.014 746.953 516.197L746.986 516.694C744.334 516.875 741.674 517.04 739.006 517.189L738.979 516.692C736.327 516.839 733.667 516.971 731.001 517.086L731.022 517.585C728.356 517.7 725.681 517.798 723 517.88L722.985 517.382C720.337 517.463 717.682 517.529 715.021 517.578L715.029 518.076C712.366 518.126 709.695 518.158 707.019 518.174L707.017 517.676C705.679 517.684 704.34 517.689 703 517.689C701.66 517.689 700.321 517.684 698.983 517.676L698.98 518.174C696.304 518.158 693.633 518.126 690.97 518.076L690.979 517.578C688.318 517.529 685.663 517.464 683.015 517.382L682.999 517.88C680.318 517.798 677.644 517.7 674.978 517.585L674.999 517.086C672.333 516.971 669.673 516.839 667.021 516.692L666.994 517.19C664.326 517.041 661.665 516.875 659.013 516.694L659.047 516.197C656.377 516.014 653.715 515.816 651.062 515.601L651.021 516.098C648.365 515.883 645.717 515.651 643.078 515.404L643.125 514.907C640.456 514.657 637.795 514.39 635.144 514.107L635.091 514.604H635.09C632.434 514.32 629.787 514.019 627.149 513.702L627.209 513.207C624.556 512.889 621.913 512.555 619.279 512.204L619.213 512.698C616.558 512.345 613.913 511.975 611.278 511.589L611.352 511.096C608.717 510.71 606.092 510.307 603.479 509.889L603.399 510.381C600.748 509.957 598.107 509.515 595.478 509.058L595.563 508.567C592.936 508.11 590.319 507.636 587.714 507.147L587.621 507.637C584.988 507.142 582.367 506.631 579.758 506.104L579.856 505.615C577.236 505.085 574.627 504.539 572.031 503.977L571.926 504.464C569.315 503.898 566.717 503.316 564.131 502.718L564.244 502.232C561.633 501.628 559.035 501.007 556.45 500.37L556.331 500.854C553.744 500.216 551.17 499.563 548.61 498.893L548.737 498.41C546.139 497.73 543.555 497.033 540.985 496.32L540.852 496.8C538.279 496.086 535.72 495.356 533.177 494.609L533.318 494.13C530.747 493.375 528.191 492.603 525.651 491.815L525.503 492.29C522.948 491.498 520.407 490.69 517.884 489.865L518.04 489.39C515.499 488.558 512.974 487.709 510.466 486.845L510.303 487.317C507.768 486.443 505.251 485.552 502.751 484.646L502.921 484.178C500.412 483.268 497.921 482.341 495.448 481.399L495.27 481.865C492.76 480.908 490.269 479.934 487.797 478.944L487.982 478.481C485.509 477.49 483.054 476.483 480.619 475.459L480.425 475.919C477.945 474.877 475.485 473.817 473.045 472.741L473.247 472.285C470.81 471.211 468.393 470.119 465.997 469.011L465.787 469.464C463.344 468.334 460.922 467.186 458.522 466.023L458.741 465.574C456.342 464.411 453.965 463.231 451.611 462.034L451.385 462.478C448.987 461.259 446.612 460.024 444.261 458.771L444.495 458.33C442.141 457.076 439.811 455.805 437.506 454.517L437.262 454.951C434.913 453.639 432.59 452.31 430.293 450.964L430.546 450.534C428.244 449.186 425.967 447.82 423.718 446.438L423.456 446.862C421.164 445.453 418.899 444.027 416.662 442.584L416.933 442.166C414.691 440.72 412.478 439.256 410.293 437.777L410.013 438.19C407.784 436.68 405.585 435.153 403.416 433.609L403.706 433.202C401.535 431.656 399.394 430.094 397.284 428.514L396.984 428.913C394.827 427.298 392.703 425.665 390.611 424.015L390.921 423.623C388.827 421.972 386.767 420.303 384.741 418.617L384.422 419C382.351 417.277 380.314 415.538 378.314 413.781L378.645 413.406C376.638 411.642 374.668 409.862 372.735 408.065L372.395 408.43C370.426 406.599 368.497 404.75 366.605 402.885L366.955 402.531C365.049 400.651 363.183 398.754 361.358 396.841L360.997 397.186C359.146 395.246 357.338 393.288 355.571 391.315L355.943 390.982C354.155 388.983 352.41 386.968 350.71 384.936L350.327 385.255C348.612 383.206 346.942 381.14 345.318 379.057L345.712 378.75C344.06 376.632 342.457 374.496 340.901 372.344L340.496 372.635C338.928 370.465 337.408 368.279 335.939 366.076L336.355 365.8C334.871 363.573 333.437 361.33 332.056 359.072L331.63 359.331C330.231 357.043 328.884 354.739 327.593 352.418L328.03 352.176C326.734 349.848 325.493 347.503 324.309 345.144L323.861 345.367C322.657 342.968 321.509 340.553 320.421 338.123L320.878 337.919C319.788 335.485 318.756 333.036 317.785 330.573L317.32 330.755C316.34 328.268 315.42 325.766 314.562 323.25L315.037 323.089C314.177 320.565 313.38 318.027 312.646 315.476L312.166 315.613C311.429 313.048 310.755 310.469 310.147 307.877L310.635 307.765C310.027 305.175 309.484 302.572 309.009 299.956L308.519 300.044C308.042 297.423 307.632 294.79 307.289 292.145L307.783 292.081C307.442 289.447 307.168 286.802 306.962 284.145L306.465 284.182C306.26 281.532 306.123 278.872 306.054 276.201L306.552 276.19C306.517 274.859 306.5 273.525 306.5 272.189C306.5 270.853 306.517 269.519 306.552 268.188L306.054 268.175C306.123 265.504 306.26 262.844 306.465 260.195L306.962 260.233C307.168 257.576 307.442 254.93 307.783 252.296L307.289 252.232C307.632 249.587 308.042 246.953 308.519 244.332L309.009 244.421C309.484 241.806 310.027 239.203 310.635 236.614L310.147 236.499C310.755 233.907 311.429 231.329 312.166 228.764L312.646 228.902C313.38 226.35 314.176 223.812 315.036 221.288L314.563 221.127L314.562 221.126C315.42 218.61 316.34 216.108 317.32 213.621L317.785 213.805C318.756 211.341 319.788 208.892 320.878 206.458L320.421 206.254C321.509 203.824 322.656 201.408 323.861 199.009L324.309 199.234C325.493 196.874 326.734 194.53 328.03 192.201L327.593 191.958C328.884 189.638 330.231 187.334 331.63 185.045L332.056 185.306C333.437 183.047 334.87 180.804 336.355 178.577L335.939 178.3C337.408 176.097 338.928 173.911 340.496 171.741L340.901 172.034C342.457 169.882 344.06 167.746 345.712 165.627L345.318 165.32C346.942 163.237 348.612 161.171 350.327 159.121L350.71 159.442C352.41 157.41 354.155 155.394 355.943 153.396L355.571 153.063C357.338 151.089 359.146 149.131 360.997 147.191L361.358 147.536C363.183 145.623 365.049 143.726 366.955 141.847L366.605 141.491C368.497 139.627 370.426 137.777 372.395 135.947L372.735 136.313C374.668 134.516 376.638 132.735 378.645 130.972L378.314 130.596C380.314 128.839 382.351 127.099 384.422 125.376L384.741 125.76C386.767 124.075 388.827 122.406 390.921 120.754L390.611 120.362C392.703 118.712 394.827 117.079 396.984 115.463L397.283 115.864C399.393 114.284 401.534 112.721 403.706 111.175L403.416 110.768C405.585 109.224 407.784 107.697 410.013 106.187L410.293 106.601C412.478 105.121 414.691 103.657 416.933 102.211L416.662 101.792C418.899 100.349 421.164 98.9236 423.456 97.5149L423.718 97.9397C425.967 96.5574 428.244 95.1919 430.546 93.843L430.293 93.4124C432.59 92.0664 434.913 90.737 437.262 89.425L437.505 89.8616C439.81 88.5736 442.141 87.3017 444.495 86.0471L444.26 85.6067C446.611 84.3537 448.986 83.1179 451.385 81.8987L451.611 82.343C453.965 81.1465 456.342 79.9663 458.741 78.803L458.522 78.3538C460.922 77.19 463.344 76.0423 465.787 74.9124L465.997 75.3665C468.393 74.2586 470.81 73.1669 473.247 72.092L473.045 71.635C475.485 70.559 477.945 69.4997 480.425 68.4573L480.619 68.9182C483.054 67.8947 485.509 66.8873 487.982 65.8967L487.796 65.4329C490.268 64.4427 492.76 63.4688 495.27 62.512L495.447 62.9788C497.92 62.036 500.412 61.1103 502.921 60.2004L502.751 59.7307C505.251 58.824 507.768 57.9334 510.303 57.0598L510.466 57.5325C512.974 56.668 515.499 55.82 518.04 54.9885L517.884 54.5129C520.407 53.6872 522.947 52.879 525.503 52.0862L525.651 52.5627C528.191 51.7747 530.747 51.0023 533.317 50.2473L533.177 49.7678C535.72 49.0208 538.279 48.2907 540.852 47.5764L540.985 48.0579C543.555 47.3446 546.139 46.6472 548.737 45.967L548.61 45.4836C551.17 44.8135 553.743 44.1603 556.33 43.5227L556.45 44.0071C559.035 43.37 561.633 42.7499 564.244 42.1458L564.131 41.6584C566.717 41.0601 569.315 40.478 571.926 39.9124L572.031 40.4006C574.627 39.8382 577.236 39.2927 579.856 38.7629L579.757 38.2727C582.366 37.7451 584.988 37.2343 587.621 36.7395L587.714 37.2307C590.319 36.7412 592.935 36.2678 595.562 35.8108L595.478 35.3186C598.107 34.8612 600.748 34.4198 603.399 33.9954L603.479 34.4885C606.092 34.0701 608.716 33.6676 611.351 33.2815L611.278 32.7874C613.913 32.4012 616.558 32.0314 619.213 31.678L619.279 32.1731C621.913 31.8225 624.556 31.4882 627.209 31.1702L627.149 30.6741C629.787 30.3579 632.434 30.0574 635.09 29.7737L635.144 30.2708C637.795 29.9875 640.456 29.7204 643.125 29.47L643.078 28.9729C645.717 28.7253 648.365 28.4938 651.021 28.2786L651.061 28.7766C653.714 28.5616 656.377 28.3633 659.047 28.1809L659.013 27.6829C661.665 27.5017 664.325 27.3364 666.993 27.1877L667.021 27.6858C669.673 27.5381 672.333 27.4065 674.999 27.2913L674.978 26.7922C677.644 26.677 680.318 26.5788 682.999 26.4963L683.015 26.9954C685.663 26.9139 688.318 26.8482 690.979 26.7991L690.97 26.3C693.633 26.2509 696.304 26.2188 698.98 26.2024L698.983 26.7014C700.321 26.6932 701.66 26.6887 703 26.6887C704.34 26.6887 705.679 26.6932 707.017 26.7014L707.019 26.2024Z" stroke="#FFF0D6" stroke-dasharray="8 8"/>
<path opacity="0.1" d="M1103.08 229.064C1103.79 231.615 1104.43 234.179 1105.02 236.756L1104.53 236.866C1105.11 239.44 1105.63 242.027 1106.09 244.625L1106.58 244.538C1107.04 247.142 1107.43 249.757 1107.76 252.383L1107.27 252.446C1107.6 255.06 1107.86 257.686 1108.06 260.323L1108.55 260.285C1108.75 262.915 1108.88 265.556 1108.95 268.206L1108.45 268.218C1108.48 269.539 1108.5 270.863 1108.5 272.189C1108.5 273.515 1108.48 274.838 1108.45 276.159L1108.95 276.17C1108.88 278.821 1108.75 281.461 1108.55 284.091L1108.06 284.055C1107.86 286.691 1107.6 289.317 1107.27 291.932L1107.76 291.993C1107.43 294.62 1107.04 297.235 1106.58 299.838L1106.09 299.752C1105.63 302.35 1105.11 304.937 1104.53 307.511L1105.02 307.62C1104.43 310.197 1103.79 312.761 1103.08 315.313L1102.6 315.18C1101.89 317.72 1101.12 320.247 1100.3 322.761L1100.77 322.918C1099.95 325.421 1099.06 327.91 1098.12 330.385L1097.65 330.208C1096.72 332.667 1095.72 335.112 1094.67 337.542L1095.13 337.74C1094.08 340.16 1092.97 342.566 1091.81 344.956L1091.37 344.74C1090.22 347.101 1089.02 349.447 1087.77 351.779L1088.21 352.015C1086.95 354.342 1085.65 356.655 1084.29 358.951L1083.87 358.697C1082.53 360.95 1081.15 363.189 1079.72 365.412L1080.14 365.682C1078.71 367.898 1077.23 370.098 1075.71 372.282L1075.3 371.997C1073.8 374.149 1072.25 376.285 1070.66 378.406L1071.05 378.705C1069.47 380.807 1067.84 382.891 1066.17 384.96L1065.79 384.648C1064.13 386.695 1062.44 388.726 1060.7 390.74L1061.08 391.066C1059.36 393.052 1057.6 395.021 1055.81 396.975L1055.44 396.637C1053.65 398.578 1051.83 400.503 1049.96 402.411L1050.32 402.76C1048.49 404.632 1046.62 406.488 1044.71 408.327L1044.37 407.968C1042.47 409.798 1040.54 411.613 1038.57 413.41L1038.9 413.778C1036.96 415.544 1034.99 417.296 1032.99 419.03L1032.66 418.653C1030.67 420.375 1028.64 422.081 1026.58 423.77L1026.9 424.156C1024.87 425.819 1022.8 427.468 1020.71 429.099L1020.4 428.705C1018.33 430.323 1016.22 431.925 1014.08 433.51L1014.38 433.911C1012.26 435.475 1010.12 437.022 1007.96 438.553L1007.67 438.146C1005.52 439.664 1003.34 441.165 1001.13 442.651L1001.41 443.065C999.225 444.531 997.017 445.981 994.782 447.414L994.514 446.994C992.296 448.417 990.052 449.823 987.781 451.213L988.041 451.638C985.8 453.009 983.534 454.365 981.243 455.703L980.992 455.273C978.715 456.603 976.413 457.917 974.087 459.215L974.33 459.651C972.037 460.93 969.721 462.193 967.382 463.44L967.147 463C964.817 464.242 962.464 465.468 960.088 466.678L960.313 467.122C957.976 468.313 955.616 469.488 953.235 470.646L953.018 470.198C950.639 471.354 948.24 472.495 945.819 473.619L946.028 474.072C943.651 475.176 941.254 476.264 938.837 477.336L938.635 476.881C936.221 477.952 933.788 479.007 931.335 480.045L931.528 480.504C929.109 481.529 926.671 482.538 924.215 483.531L924.028 483.069C921.584 484.056 919.121 485.028 916.641 485.984L916.819 486.448C914.361 487.396 911.885 488.327 909.393 489.242L909.222 488.774C906.751 489.681 904.264 490.572 901.76 491.448L901.924 491.917C899.43 492.789 896.92 493.646 894.394 494.486L894.237 494.012C891.745 494.84 889.236 495.654 886.713 496.45L886.862 496.925C884.337 497.723 881.796 498.505 879.24 499.271L879.098 498.793C876.585 499.546 874.058 500.283 871.518 501.004L871.652 501.484C869.11 502.205 866.554 502.91 863.984 503.6L863.856 503.118C861.314 503.801 858.758 504.468 856.189 505.118L856.311 505.602C853.755 506.249 851.187 506.881 848.605 507.496L848.491 507.011C845.921 507.624 843.338 508.222 840.743 508.803L840.852 509.289C838.285 509.864 835.707 510.424 833.117 510.968L833.016 510.48C830.428 511.023 827.829 511.549 825.218 512.061L825.312 512.55C822.73 513.056 820.137 513.545 817.532 514.02L817.443 513.531C814.849 514.003 812.244 514.46 809.628 514.901L809.71 515.393C807.104 515.832 804.488 516.256 801.861 516.664L801.786 516.171C799.187 516.575 796.577 516.963 793.958 517.335L794.028 517.828C791.407 518.201 788.776 518.558 786.136 518.899L786.073 518.405C783.465 518.741 780.847 519.063 778.221 519.368L778.277 519.864C775.655 520.169 773.024 520.459 770.384 520.733L770.334 520.237C767.707 520.509 765.07 520.765 762.426 521.006L762.471 521.504C759.849 521.743 757.218 521.966 754.58 522.174L754.541 521.676C751.905 521.883 749.26 522.075 746.608 522.251L746.641 522.749C744.011 522.924 741.375 523.082 738.73 523.225L738.705 522.727C736.072 522.869 733.431 522.997 730.784 523.108L730.804 523.606C728.159 523.717 725.507 523.811 722.849 523.891L722.834 523.393C720.205 523.471 717.57 523.535 714.929 523.582L714.937 524.08C712.293 524.128 709.643 524.159 706.987 524.175L706.985 523.677C705.658 523.685 704.33 523.689 703 523.689C701.67 523.689 700.342 523.685 699.015 523.677L699.012 524.175C696.356 524.159 693.706 524.128 691.062 524.08L691.071 523.582C688.43 523.535 685.795 523.471 683.166 523.393L683.151 523.891C680.493 523.811 677.84 523.717 675.195 523.606L675.216 523.108C672.569 522.997 669.929 522.869 667.296 522.727L667.269 523.225C664.625 523.082 661.988 522.924 659.358 522.749L659.392 522.251C656.74 522.075 654.095 521.883 651.459 521.676L651.42 522.174H651.419C648.781 521.966 646.15 521.743 643.528 521.504H643.529L643.574 521.006C640.93 520.765 638.294 520.509 635.667 520.237L635.615 520.733C632.975 520.459 630.344 520.169 627.722 519.864L627.779 519.368C625.153 519.063 622.535 518.741 619.927 518.405L619.863 518.899C617.223 518.558 614.593 518.201 611.972 517.828L612.042 517.335C609.423 516.963 606.813 516.575 604.214 516.171L604.138 516.664C601.511 516.256 598.895 515.832 596.289 515.393L596.372 514.901C593.756 514.46 591.151 514.003 588.557 513.531L588.467 514.02C585.862 513.545 583.269 513.056 580.687 512.55L580.782 512.061C578.171 511.549 575.572 511.023 572.984 510.48L572.882 510.968C570.292 510.424 567.714 509.864 565.147 509.289L565.257 508.803C562.662 508.222 560.079 507.624 557.509 507.011L557.394 507.496C554.812 506.881 552.244 506.249 549.688 505.602L549.811 505.118C547.242 504.468 544.686 503.801 542.144 503.118L542.015 503.6C539.445 502.91 536.889 502.205 534.347 501.484L534.483 501.004C531.942 500.283 529.415 499.546 526.902 498.793L526.759 499.271C524.203 498.505 521.662 497.723 519.137 496.925L519.287 496.45C516.764 495.654 514.256 494.84 511.764 494.012L511.605 494.486C509.079 493.646 506.569 492.789 504.075 491.917L504.24 491.448C501.736 490.572 499.249 489.681 496.778 488.774L496.606 489.242C494.114 488.327 491.638 487.396 489.18 486.448L489.359 485.984C486.879 485.028 484.416 484.056 481.972 483.069L481.784 483.531C479.328 482.538 476.89 481.529 474.471 480.504L474.666 480.045C472.213 479.006 469.779 477.952 467.365 476.881L467.162 477.336C464.745 476.264 462.348 475.176 459.971 474.072L460.181 473.619C457.76 472.495 455.361 471.354 452.982 470.198L452.764 470.646C450.383 469.488 448.023 468.313 445.686 467.122L445.912 466.678C443.536 465.468 441.183 464.242 438.853 463L438.617 463.44C436.278 462.193 433.962 460.93 431.669 459.651L431.913 459.215C429.587 457.917 427.285 456.603 425.008 455.273L424.756 455.703C422.465 454.365 420.199 453.009 417.958 451.638L418.22 451.213C415.949 449.823 413.704 448.417 411.486 446.994L411.217 447.414C408.982 445.981 406.774 444.531 404.594 443.065L404.873 442.652C402.664 441.166 400.483 439.664 398.332 438.146L398.044 438.553C395.874 437.022 393.734 435.475 391.624 433.911L391.921 433.51C389.782 431.925 387.673 430.323 385.597 428.705L385.289 429.099C383.195 427.468 381.133 425.819 379.104 424.156L379.42 423.77C377.359 422.081 375.332 420.375 373.34 418.653L373.013 419.03C371.006 417.296 369.035 415.544 367.099 413.778L367.435 413.41C365.464 411.613 363.53 409.799 361.634 407.969L361.287 408.327C359.381 406.488 357.512 404.632 355.682 402.76L356.039 402.411C354.173 400.503 352.346 398.578 350.561 396.637L350.193 396.975C348.396 395.021 346.639 393.052 344.924 391.066L345.303 390.74C343.563 388.726 341.866 386.695 340.213 384.648L339.825 384.96C338.154 382.891 336.526 380.807 334.945 378.705L335.346 378.406C333.75 376.285 332.2 374.149 330.698 371.997L330.29 372.283C328.765 370.099 327.288 367.898 325.86 365.682L326.28 365.412C324.848 363.189 323.466 360.95 322.135 358.697L321.704 358.951C320.347 356.655 319.044 354.342 317.793 352.015L318.232 351.78C316.979 349.448 315.779 347.101 314.634 344.74L314.185 344.956C313.025 342.566 311.92 340.16 310.873 337.74L311.331 337.542C310.279 335.112 309.284 332.667 308.348 330.208L307.881 330.385C306.938 327.91 306.053 325.421 305.229 322.918L305.704 322.761C304.876 320.247 304.109 317.72 303.403 315.18L302.922 315.313C302.213 312.761 301.566 310.197 300.981 307.62L301.47 307.511C300.886 304.937 300.365 302.35 299.908 299.752L299.417 299.838C298.959 297.235 298.565 294.62 298.236 291.993L298.731 291.932C298.404 289.317 298.141 286.691 297.943 284.055L297.446 284.091C297.249 281.461 297.117 278.821 297.051 276.17L297.55 276.159C297.517 274.838 297.5 273.515 297.5 272.189C297.5 270.863 297.517 269.539 297.55 268.218L297.051 268.206C297.117 265.556 297.249 262.915 297.446 260.285L297.943 260.323C298.141 257.686 298.404 255.06 298.731 252.446L298.236 252.383C298.565 249.757 298.959 247.142 299.417 244.538L299.908 244.625C300.365 242.027 300.886 239.44 301.47 236.866L300.981 236.756C301.56 234.203 302.201 231.661 302.902 229.133L302.922 229.064L303.403 229.198C304.109 226.657 304.876 224.13 305.704 221.616L305.229 221.459L305.229 221.458C306.053 218.955 306.938 216.467 307.881 213.991L308.348 214.169C309.284 211.71 310.279 209.266 311.331 206.835L310.873 206.636C311.921 204.216 313.025 201.811 314.185 199.42L314.634 199.638C315.779 197.277 316.979 194.93 318.232 192.599L317.793 192.362C319.044 190.034 320.347 187.721 321.704 185.425L321.705 185.426L322.135 185.681C323.466 183.427 324.848 181.188 326.28 178.965L325.86 178.695C327.288 176.479 328.764 174.278 330.289 172.094L330.698 172.38C332.2 170.229 333.749 168.092 335.345 165.972L334.945 165.671C336.526 163.57 338.154 161.485 339.825 159.416L340.213 159.73C341.866 157.683 343.563 155.652 345.303 153.637L344.924 153.311C346.639 151.325 348.396 149.355 350.193 147.402L350.561 147.74C352.346 145.799 354.173 143.874 356.039 141.966L355.682 141.616C357.512 139.745 359.381 137.889 361.287 136.049L361.634 136.409C363.53 134.579 365.464 132.764 367.435 130.967L367.099 130.599C369.035 128.832 371.006 127.081 373.013 125.347L373.34 125.725C375.332 124.003 377.359 122.297 379.42 120.608L379.104 120.221C381.133 118.557 383.195 116.909 385.289 115.278L385.596 115.672C387.673 114.054 389.782 112.453 391.921 110.867L391.624 110.465C393.734 108.902 395.874 107.354 398.044 105.823L398.332 106.232C400.483 104.714 402.664 103.212 404.873 101.727L404.594 101.312C406.774 99.8457 408.982 98.3957 411.217 96.9622L411.486 97.3831C413.704 95.9607 415.948 94.554 418.219 93.1643L417.958 92.7385C420.199 91.3673 422.465 90.0119 424.756 88.6731L425.008 89.1047C427.285 87.7742 429.587 86.4603 431.913 85.1624L431.669 84.7258C433.962 83.4466 436.278 82.1838 438.617 80.9368L438.853 81.3772C441.183 80.135 443.536 78.9091 445.912 77.6995L445.686 77.2542C448.023 76.0639 450.383 74.8889 452.764 73.7307L452.982 74.1799C455.361 73.0231 457.76 71.8824 460.181 70.7581L459.971 70.3049C462.348 69.2007 464.745 68.1126 467.162 67.0403L467.365 67.4963C469.779 66.4255 472.212 65.3709 474.665 64.3323L474.471 63.8723C476.89 62.8479 479.328 61.8385 481.784 60.8459L481.972 61.3088C484.416 60.3211 486.879 59.3495 489.359 58.3938L489.18 57.928C491.638 56.9809 494.114 56.0492 496.606 55.134L496.778 55.6038C499.249 54.6968 501.736 53.8051 504.24 52.9299L504.075 52.4592C505.867 51.8328 507.668 51.2137 509.477 50.6038L511.605 49.8909L511.763 50.3655C514.255 49.537 516.764 48.7239 519.287 47.927L519.137 47.4514C521.005 46.8612 522.882 46.279 524.768 45.7063L526.759 45.1057L526.902 45.5842C529.415 44.8317 531.942 44.0944 534.482 43.3733L534.347 42.8928C536.889 42.1713 539.445 41.4663 542.015 40.7766L542.144 41.259C544.686 40.5768 547.242 39.9097 549.811 39.259L549.688 38.7747C552.244 38.1274 554.812 37.4958 557.394 36.8801L557.509 37.3665C560.079 36.7534 562.662 36.1558 565.257 35.5745L565.147 35.0872C567.714 34.5122 570.292 33.952 572.882 33.4084L572.984 33.8977C575.572 33.3547 578.171 32.828 580.782 32.3167L580.687 31.8264C583.269 31.3206 585.862 30.8311 588.467 30.3567L588.557 30.8469C591.151 30.3743 593.756 29.9179 596.372 29.4768L596.289 28.9836C598.895 28.5442 601.511 28.12 604.138 27.7122L604.214 28.2063C606.813 27.8026 609.423 27.4146 612.042 27.0422L611.971 26.5481C614.592 26.1754 617.223 25.8188 619.863 25.4778L619.927 25.9729C622.535 25.636 625.153 25.3147 627.779 25.009L627.722 24.5129C630.344 24.2078 632.975 23.9175 635.615 23.6438L635.666 24.1409C638.293 23.8685 640.93 23.6122 643.574 23.3713L643.529 22.8733L643.528 22.8723C646.15 22.6334 648.781 22.41 651.419 22.2024L651.42 22.2034L651.459 22.7014C654.095 22.494 656.74 22.3021 659.392 22.1262L659.358 21.6272C661.988 21.4528 664.625 21.2947 667.269 21.1516L667.295 21.6506C669.928 21.5081 672.569 21.3809 675.216 21.2698L675.195 20.7708C677.84 20.6597 680.492 20.565 683.15 20.4856L683.166 20.9846C685.795 20.9061 688.43 20.8425 691.071 20.7952L691.062 20.2961C693.706 20.2488 696.356 20.2173 699.012 20.2014L699.015 20.7004C700.342 20.6925 701.67 20.6887 703 20.6887C704.33 20.6887 705.658 20.6925 706.985 20.7004L706.987 20.2014C709.643 20.2173 712.293 20.2488 714.937 20.2961L714.929 20.7952C717.57 20.8425 720.205 20.9061 722.834 20.9846L722.848 20.4856C725.506 20.565 728.159 20.6597 730.804 20.7708L730.784 21.2698C733.431 21.3809 736.071 21.5081 738.704 21.6506L738.73 21.1516C741.375 21.2947 744.011 21.4528 746.641 21.6272L746.608 22.1262C749.26 22.3021 751.905 22.494 754.541 22.7014L754.58 22.2034V22.2024C757.218 22.41 759.849 22.6334 762.471 22.8723V22.8733L762.426 23.3713C765.07 23.6122 767.706 23.8685 770.333 24.1409L770.384 23.6438C773.024 23.9175 775.655 24.2078 778.277 24.5129L778.221 25.009C780.847 25.3147 783.465 25.636 786.073 25.9729L786.136 25.4778C788.776 25.8188 791.406 26.1755 794.027 26.5481L793.958 27.0422C796.577 27.4146 799.187 27.8026 801.786 28.2063L801.861 27.7122C804.488 28.12 807.104 28.5442 809.71 28.9836L809.628 29.4768C812.244 29.9179 814.849 30.3743 817.443 30.8469L817.532 30.3567C820.137 30.8311 822.73 31.3206 825.312 31.8264L825.218 32.3167C827.829 32.828 830.428 33.3547 833.016 33.8977L833.117 33.4084C835.707 33.952 838.285 34.5122 840.852 35.0872L840.743 35.5745C843.338 36.1558 845.921 36.7534 848.491 37.3665L848.605 36.8801C851.187 37.4958 853.755 38.1274 856.311 38.7747L856.189 39.259C858.758 39.9097 861.314 40.5768 863.856 41.259L863.984 40.7766C866.554 41.4663 869.11 42.1714 871.652 42.8928L871.517 43.3733C874.058 44.0945 876.585 44.8316 879.098 45.5842L879.24 45.1057C881.796 45.8713 884.337 46.6538 886.862 47.4514L886.713 47.927C889.236 48.7239 891.744 49.537 894.236 50.3655L894.394 49.8909C896.92 50.7306 899.43 51.5875 901.924 52.4592L901.76 52.9299C904.264 53.8051 906.751 54.6968 909.222 55.6038L909.393 55.134C911.885 56.0492 914.361 56.9809 916.819 57.928L916.641 58.3938C919.121 59.3495 921.584 60.3211 924.028 61.3088L924.215 60.8459C926.671 61.8385 929.109 62.8479 931.528 63.8723L931.334 64.3323C933.787 65.371 936.221 66.4254 938.635 67.4963L938.837 67.0403C941.254 68.1126 943.651 69.2007 946.028 70.3049H946.029L945.819 70.7581C948.24 71.8824 950.639 73.0231 953.018 74.1799L953.235 73.7307C955.616 74.8889 957.976 76.0639 960.313 77.2542L960.088 77.6995C962.464 78.9091 964.817 80.1351 967.147 81.3772L967.382 80.9368C969.721 82.1838 972.037 83.4466 974.33 84.7258H974.331L974.087 85.1624C976.413 86.4603 978.715 87.7742 980.992 89.1047L981.243 88.6731C983.534 90.0119 985.8 91.3673 988.041 92.7385L987.78 93.1643C990.051 94.554 992.296 95.9607 994.514 97.3831L994.782 96.9622C997.017 98.3957 999.225 99.8457 1001.41 101.312L1001.13 101.726C1003.34 103.211 1005.52 104.714 1007.67 106.232L1007.96 105.823C1010.12 107.354 1012.26 108.902 1014.38 110.465L1014.08 110.867C1016.22 112.453 1018.33 114.054 1020.4 115.672L1020.71 115.278C1022.8 116.909 1024.87 118.557 1026.9 120.221H1026.9L1026.58 120.608C1028.64 122.297 1030.67 124.003 1032.66 125.725L1032.99 125.347C1034.99 127.081 1036.96 128.832 1038.9 130.599L1038.57 130.967C1040.54 132.764 1042.47 134.578 1044.37 136.408L1044.71 136.049C1046.62 137.889 1048.49 139.745 1050.32 141.616L1049.96 141.966C1051.83 143.874 1053.65 145.799 1055.44 147.74L1055.81 147.402C1057.6 149.355 1059.36 151.325 1061.08 153.311L1060.7 153.637C1062.44 155.652 1064.13 157.683 1065.79 159.73L1066.17 159.416C1067.84 161.485 1069.47 163.57 1071.05 165.671H1071.05L1070.65 165.972C1072.25 168.092 1073.8 170.228 1075.3 172.38L1075.71 172.093C1077.23 174.278 1078.71 176.478 1080.14 178.695L1079.72 178.965C1081.15 181.188 1082.53 183.427 1083.87 185.681L1084.29 185.426V185.425C1085.65 187.721 1086.95 190.034 1088.21 192.362L1087.77 192.598C1089.02 194.93 1090.22 197.277 1091.37 199.638L1091.81 199.42C1092.97 201.811 1094.08 204.216 1095.13 206.636L1094.67 206.835C1095.72 209.266 1096.72 211.71 1097.65 214.169L1098.12 213.991C1099.06 216.467 1099.95 218.955 1100.77 221.458V221.459L1100.3 221.616C1101.12 224.13 1101.89 226.657 1102.6 229.198L1103.08 229.064Z" stroke="#FFF0D6" stroke-dasharray="8 8"/>
<path opacity="0.1" d="M863.166 213.243C863.598 215.808 864.001 218.388 864.377 220.983L863.886 221.055C864.257 223.618 864.601 226.197 864.917 228.789L865.411 228.729C865.726 231.31 866.012 233.906 866.271 236.515L865.775 236.565C866.031 239.147 866.259 241.742 866.459 244.35L866.955 244.312C867.153 246.9 867.325 249.501 867.467 252.114L866.97 252.141C867.111 254.737 867.224 257.344 867.31 259.962L867.807 259.947C867.891 262.54 867.947 265.145 867.976 267.759L867.479 267.765C867.493 269.07 867.5 270.378 867.5 271.689C867.5 272.999 867.493 274.307 867.479 275.613L867.976 275.616C867.947 278.231 867.891 280.836 867.807 283.43L867.31 283.415C867.224 286.033 867.111 288.641 866.97 291.237L867.467 291.263C867.325 293.875 867.153 296.476 866.955 299.065L866.459 299.028C866.259 301.635 866.031 304.231 865.775 306.813L866.271 306.862C866.012 309.47 865.726 312.066 865.411 314.648L864.917 314.588C864.601 317.18 864.257 319.759 863.886 322.323L864.377 322.394C864.001 324.989 863.598 327.569 863.166 330.133L862.674 330.05C862.239 332.631 861.775 335.197 861.284 337.745L861.772 337.839C861.277 340.407 860.755 342.959 860.204 345.492L859.718 345.387C859.161 347.947 858.577 350.489 857.965 353.012L858.449 353.129C857.831 355.678 857.182 358.207 856.508 360.716L856.028 360.587C855.35 363.11 854.644 365.613 853.91 368.095L854.386 368.236C853.642 370.752 852.872 373.247 852.072 375.719L851.598 375.567C850.791 378.059 849.958 380.529 849.096 382.975L849.565 383.14C848.695 385.61 847.794 388.056 846.868 390.477L846.404 390.3C845.469 392.745 844.507 395.164 843.517 397.557L843.976 397.745C842.971 400.173 841.938 402.573 840.877 404.946L840.424 404.743C839.355 407.134 838.258 409.495 837.135 411.826L837.583 412.043C836.446 414.402 835.28 416.731 834.088 419.029L833.647 418.8C832.44 421.128 831.203 423.424 829.94 425.687L830.374 425.929C829.093 428.223 827.785 430.483 826.449 432.708L826.022 432.452C824.674 434.698 823.299 436.907 821.896 439.079L822.313 439.349C820.891 441.551 819.441 443.715 817.965 445.84L817.557 445.557C816.06 447.71 814.537 449.823 812.986 451.895L813.383 452.192C811.807 454.296 810.204 456.358 808.574 458.376L808.188 458.066C806.542 460.104 804.868 462.098 803.168 464.045L803.542 464.371C801.815 466.349 800.063 468.28 798.283 470.16L797.921 469.818C796.122 471.718 794.297 473.568 792.445 475.366L792.793 475.724C790.908 477.555 788.997 479.331 787.06 481.054L786.729 480.681C784.77 482.423 782.785 484.108 780.775 485.736L781.09 486.124C779.048 487.777 776.98 489.37 774.888 490.903L774.594 490.5C772.483 492.046 770.347 493.53 768.187 494.949L768.46 495.366C766.268 496.807 764.052 498.181 761.812 499.489L761.561 499.058C759.305 500.374 757.025 501.622 754.723 502.799L754.95 503.244C752.619 504.437 750.264 505.558 747.887 506.605L747.686 506.147C745.3 507.198 742.892 508.175 740.463 509.074L740.636 509.542C738.183 510.451 735.71 511.282 733.216 512.033L733.072 511.556C730.582 512.307 728.072 512.978 725.543 513.568L725.655 514.053C723.116 514.645 720.559 515.157 717.983 515.584L717.901 515.091C715.344 515.515 712.77 515.856 710.18 516.113L710.228 516.609C707.641 516.865 705.04 517.036 702.423 517.122L702.407 516.624C701.108 516.667 699.806 516.689 698.5 516.689C697.194 516.689 695.892 516.667 694.593 516.624L694.576 517.122C691.96 517.036 689.358 516.865 686.771 516.609L686.82 516.113C684.23 515.856 681.656 515.515 679.099 515.091L679.017 515.584H679.016C676.44 515.157 673.883 514.645 671.344 514.053L671.457 513.568C668.928 512.978 666.418 512.307 663.928 511.556L663.783 512.033C661.289 511.282 658.816 510.451 656.363 509.542L656.537 509.074C654.108 508.175 651.7 507.198 649.314 506.147L649.112 506.605C646.735 505.558 644.38 504.437 642.049 503.244L642.277 502.799C639.975 501.622 637.695 500.374 635.439 499.058L635.188 499.489C632.947 498.181 630.73 496.807 628.538 495.366L628.813 494.949C626.653 493.53 624.517 492.046 622.406 490.5L622.111 490.903C620.019 489.37 617.951 487.777 615.909 486.124L616.225 485.736C614.215 484.108 612.23 482.423 610.271 480.681L609.939 481.054C608.002 479.331 606.091 477.555 604.206 475.724L604.555 475.366C602.703 473.568 600.878 471.718 599.079 469.818L598.716 470.16C596.936 468.28 595.184 466.349 593.457 464.371L593.832 464.044C592.132 462.097 590.458 460.103 588.812 458.065L588.425 458.376C586.795 456.358 585.192 454.296 583.616 452.192L584.014 451.895C582.463 449.823 580.94 447.71 579.443 445.557L579.034 445.84C577.557 443.715 576.108 441.55 574.686 439.348L575.104 439.079C573.701 436.907 572.326 434.698 570.978 432.452L570.55 432.708C569.214 430.483 567.906 428.223 566.625 425.929L567.06 425.687C565.797 423.424 564.56 421.128 563.353 418.8L562.911 419.029C561.719 416.731 560.553 414.402 559.416 412.042L559.865 411.826C558.742 409.495 557.645 407.134 556.576 404.743L556.122 404.945C555.062 402.573 554.028 400.173 553.023 397.745L553.483 397.557C552.493 395.164 551.531 392.745 550.596 390.3L550.131 390.477C549.205 388.056 548.304 385.61 547.434 383.14L547.904 382.975C547.042 380.529 546.209 378.059 545.402 375.567L544.927 375.719C544.127 373.247 543.357 370.752 542.613 368.236L543.09 368.095C542.356 365.613 541.65 363.11 540.972 360.587L540.491 360.715C539.817 358.206 539.168 355.677 538.55 353.129L539.035 353.012C538.423 350.489 537.839 347.947 537.282 345.387L536.795 345.492C536.244 342.959 535.722 340.407 535.227 337.839L535.716 337.745C535.225 335.197 534.761 332.631 534.326 330.05L533.833 330.133C533.401 327.569 532.998 324.989 532.622 322.394L533.114 322.323C532.743 319.759 532.399 317.18 532.083 314.588L531.588 314.648C531.273 312.066 530.987 309.47 530.729 306.862L531.225 306.813C530.969 304.231 530.741 301.635 530.541 299.028L530.044 299.065C529.846 296.476 529.675 293.875 529.532 291.263L530.03 291.237C529.889 288.641 529.776 286.033 529.69 283.415L529.192 283.43C529.108 280.836 529.052 278.232 529.023 275.617L529.521 275.613C529.507 274.307 529.5 272.999 529.5 271.689C529.5 270.378 529.507 269.07 529.521 267.765L529.023 267.76C529.052 265.145 529.108 262.541 529.192 259.947L529.69 259.962C529.776 257.344 529.889 254.737 530.03 252.141L529.532 252.114C529.675 249.501 529.846 246.9 530.044 244.312L530.541 244.35C530.741 241.742 530.969 239.147 531.225 236.565L530.729 236.515C530.987 233.906 531.273 231.31 531.588 228.729L532.083 228.789C532.399 226.197 532.743 223.618 533.114 221.055L532.622 220.983C532.996 218.401 533.396 215.834 533.826 213.283L533.833 213.243L534.326 213.327C534.761 210.746 535.225 208.18 535.716 205.632L535.227 205.537C535.722 202.969 536.244 200.418 536.795 197.884L537.282 197.99C537.839 195.43 538.423 192.888 539.035 190.365L538.55 190.247C539.168 187.699 539.817 185.17 540.491 182.66L540.972 182.79C541.65 180.267 542.356 177.764 543.09 175.282L542.613 175.141C543.357 172.625 544.127 170.13 544.927 167.657L545.402 167.811C546.209 165.318 547.042 162.848 547.904 160.403L547.434 160.237C548.304 157.766 549.205 155.321 550.131 152.9L550.596 153.077C551.531 150.633 552.493 148.213 553.483 145.821L553.023 145.631C554.028 143.203 555.062 140.803 556.122 138.431L556.576 138.634C557.645 136.244 558.742 133.883 559.865 131.551L559.416 131.333C560.553 128.974 561.719 126.646 562.911 124.348L563.353 124.577C564.56 122.249 565.797 119.953 567.06 117.691L566.625 117.448C567.906 115.153 569.214 112.893 570.55 110.668L570.978 110.925C572.326 108.68 573.701 106.47 575.104 104.298L574.686 104.028C576.108 101.825 577.558 99.6614 579.034 97.5364L579.443 97.8206C580.94 95.6673 582.463 93.554 584.014 91.4827L583.616 91.1848C585.192 89.0801 586.795 87.0182 588.425 85.0002L588.812 85.3118C590.458 83.2732 592.132 81.2794 593.832 79.3323L593.457 79.0051C595.184 77.0278 596.936 75.0967 598.716 73.2161L599.079 73.5598C600.878 71.6595 602.703 69.8093 604.555 68.011L604.206 67.6526C606.091 65.8219 608.002 64.045 609.939 62.3225L610.271 62.6965C612.23 60.9549 614.215 59.2693 616.225 57.6418L615.91 57.2532L615.909 57.2522C617.951 55.5992 620.019 54.0065 622.111 52.4739L622.406 52.8772C624.517 51.3312 626.653 49.8475 628.813 48.428L628.539 48.01C630.731 46.5697 632.947 45.1953 635.188 43.8879L635.439 44.3196C637.695 43.0032 639.975 41.7558 642.277 40.5784L642.05 40.1331L642.049 40.1321C644.38 38.9397 646.735 37.8187 649.112 36.7717L649.113 36.7727L649.314 37.2307C651.7 36.1799 654.108 35.2029 656.537 34.303L656.363 33.8342C658.816 32.9256 661.289 32.0948 663.783 31.343L663.928 31.8215C666.418 31.0708 668.928 30.3997 671.457 29.8098L671.344 29.3235C673.883 28.7313 676.44 28.2191 679.016 27.7922L679.017 27.7932L679.099 28.2864C681.656 27.8625 684.23 27.5213 686.82 27.2649L686.771 26.7678C689.358 26.5118 691.96 26.3402 694.576 26.2542L694.593 26.7532C695.892 26.7104 697.194 26.6887 698.5 26.6887C699.806 26.6887 701.108 26.7104 702.407 26.7532L702.423 26.2542C705.039 26.3402 707.641 26.5119 710.228 26.7678L710.18 27.2649C712.77 27.5213 715.344 27.8625 717.901 28.2864L717.983 27.7932V27.7922C720.559 28.2191 723.116 28.7313 725.655 29.3235L725.543 29.8098C728.072 30.3997 730.582 31.0708 733.072 31.8215L733.216 31.343C735.71 32.0948 738.183 32.9256 740.636 33.8342L740.463 34.303C742.892 35.2029 745.3 36.1799 747.686 37.2307L747.887 36.7727V36.7717C750.264 37.8187 752.619 38.9397 754.95 40.1321V40.1331L754.723 40.5784C757.025 41.7558 759.305 43.0032 761.561 44.3196L761.812 43.8879C764.052 45.1954 766.269 46.5696 768.461 48.01V48.011L768.187 48.428C770.347 49.8475 772.483 51.3312 774.594 52.8772L774.888 52.4739C776.98 54.0065 779.048 55.5992 781.09 57.2522V57.2532L780.775 57.6418C782.785 59.2693 784.77 60.9549 786.729 62.6965L787.06 62.3225C788.997 64.045 790.908 65.8219 792.793 67.6526L792.445 68.011C794.297 69.8093 796.122 71.6595 797.921 73.5598L798.283 73.2161C800.063 75.0967 801.815 77.0278 803.542 79.0051L803.168 79.3333C804.868 81.2803 806.542 83.2742 808.188 85.3127L808.574 85.0002C810.204 87.0182 811.807 89.0801 813.383 91.1848L812.986 91.4827C814.537 93.554 816.06 95.6673 817.557 97.8206L817.965 97.5364C819.442 99.6617 820.891 101.826 822.313 104.029L821.896 104.298C823.299 106.47 824.674 108.68 826.022 110.925L826.449 110.668C827.785 112.893 829.093 115.153 830.374 117.448L829.94 117.691C831.203 119.953 832.44 122.249 833.647 124.577L834.088 124.348C835.28 126.646 836.446 128.975 837.583 131.334L837.135 131.551C838.258 133.883 839.355 136.244 840.424 138.634L840.877 138.432C841.937 140.804 842.971 143.204 843.976 145.631L843.517 145.821C844.507 148.213 845.469 150.633 846.404 153.077L846.868 152.9C847.794 155.321 848.695 157.766 849.565 160.237L849.096 160.403C849.958 162.848 850.791 165.318 851.598 167.811L852.072 167.657C852.872 170.13 853.642 172.625 854.386 175.141L853.91 175.282C854.644 177.764 855.35 180.267 856.028 182.79L856.508 182.661C857.182 185.17 857.831 187.699 858.449 190.247H858.45L857.965 190.365C858.577 192.888 859.161 195.43 859.718 197.99L860.204 197.884C860.755 200.418 861.277 202.969 861.772 205.537L861.284 205.632C861.775 208.18 862.239 210.746 862.674 213.327L863.166 213.243Z" stroke="#FFF0D6" stroke-dasharray="8 8"/>
<path opacity="0.6" d="M529.064 163.611L529.994 160.704C530.561 158.931 531.923 158.029 534.203 158.758L536.79 159.586C539.07 160.315 539.655 161.84 539.088 163.613L538.158 166.52L529.064 163.611ZM536.474 160.573L533.887 159.745C532.154 159.191 531.332 159.692 530.914 160.999L530.3 162.919L537.554 165.239L538.168 163.319C538.586 162.012 538.208 161.127 536.474 160.573ZM539.021 152.141L539.577 152.334L537.942 157.042L537.995 157.06C539.568 157.607 540.411 157.099 540.802 155.975L540.825 155.909C541.114 155.076 541.013 154.344 540.342 153.8L540.677 152.835C541.907 153.647 542.175 154.881 541.711 156.217L541.688 156.283C541.105 157.963 539.762 158.756 537.659 158.026L537.051 157.814C534.935 157.079 534.391 155.616 534.97 153.95L534.993 153.884C535.576 152.204 536.919 151.411 539.021 152.141ZM535.879 154.191L535.856 154.257C535.484 155.329 535.782 156.218 537.161 156.771L538.461 153.028C537.036 152.607 536.251 153.12 535.879 154.191ZM544.496 148.152L543.974 149.541L536.673 149.548L537.052 148.539L543.319 148.577L543.374 148.433L538.628 144.346L539.008 143.336L544.496 148.152ZM537.481 138.135L538.113 136.579L539.644 137.2L539.012 138.757L537.481 138.135ZM546.698 140.033L547.583 137.854L548.452 138.206L547.651 140.178C547.257 141.151 546.41 141.412 545.476 141.033L541.585 139.453L540.568 141.957L539.699 141.604L541.105 138.141L546.203 140.21C546.463 140.315 546.608 140.253 546.698 140.033ZM550.288 134.355L550.26 134.419C549.547 136.048 548.147 136.735 546.108 135.843L545.518 135.585C543.465 134.687 543.037 133.186 543.744 131.57L543.772 131.506C544.4 130.069 545.589 129.306 547.198 129.856L546.782 130.805C545.719 130.478 545.035 130.958 544.631 131.882L544.603 131.946C544.126 133.036 544.401 133.981 545.927 134.649L546.517 134.907C548.043 135.574 548.924 135.134 549.4 134.043L549.428 133.979C549.827 133.069 549.726 132.215 548.758 131.669L549.173 130.72C550.669 131.527 550.916 132.918 550.288 134.355ZM551.285 122.893L551.817 123.143L549.696 127.653L549.746 127.677C551.254 128.386 552.146 127.97 552.652 126.893L552.682 126.83C553.058 126.032 553.034 125.294 552.424 124.682L552.859 123.757C553.996 124.694 554.133 125.95 553.531 127.229L553.501 127.293C552.744 128.902 551.326 129.549 549.311 128.602L548.729 128.328C546.702 127.374 546.315 125.862 547.066 124.265L547.095 124.202C547.852 122.593 549.271 121.945 551.285 122.893ZM547.944 124.601L547.914 124.665C547.432 125.691 547.635 126.607 548.948 127.302L550.635 123.716C549.262 123.148 548.427 123.575 547.944 124.601ZM558.15 107.678L559.448 110.246L562.169 109.811L562.292 109.877L561.765 110.849L559.869 111.143C560.475 112.523 560.526 113.427 559.985 114.423C559.311 115.666 558.009 116.011 556.803 115.357C555.757 114.789 555.206 113.837 554.995 111.907C554.043 112.075 553.287 112.207 552.463 111.759C551.515 111.245 551.133 110.13 551.721 109.047C552.321 107.94 553.439 107.67 554.424 108.204C555.248 108.652 555.602 109.497 555.783 110.837L558.484 110.408L557.322 108.088L558.15 107.678ZM552.508 109.474C552.181 110.077 552.426 110.624 552.943 110.905C553.521 111.218 554.012 111.135 554.926 110.977C554.8 109.889 554.51 109.366 553.944 109.059C553.415 108.772 552.855 108.834 552.508 109.474ZM559.193 113.946C559.587 113.22 559.504 112.521 558.931 111.287L555.902 111.762C556.122 113.411 556.551 114.089 557.252 114.469C558.027 114.89 558.812 114.647 559.193 113.946ZM568.54 99.7024L568.503 99.7618C567.472 101.412 566.008 102.065 564.167 100.915L564.716 100.037C566.082 100.89 566.917 100.504 567.696 99.2573L567.733 99.198C568.468 98.0225 568.402 97.1233 567.464 96.5372C566.289 95.8028 565.344 96.8135 564.434 97.5823C563.41 98.4283 562.153 99.4094 560.622 98.4524C559.311 97.6171 559.167 96.1569 560.065 94.7202L560.102 94.6609C561.051 93.1411 562.497 92.4925 564.337 93.6423L563.795 94.509C562.43 93.6559 561.592 94.073 560.909 95.1653L560.872 95.2247C560.219 96.2695 560.359 97.0501 561.178 97.562C562.247 98.2296 563.112 97.4 563.953 96.6875C564.987 95.7985 566.327 94.6052 568.013 95.6586C569.438 96.5488 569.535 98.1114 568.54 99.7024ZM571.207 88.56L571.695 88.8876L568.919 93.0268L568.965 93.058C570.349 93.986 571.293 93.709 571.956 92.7207L571.995 92.6626C572.486 91.9301 572.574 91.1965 572.063 90.5L572.633 89.6512C573.616 90.7489 573.562 92.0107 572.774 93.1851L572.735 93.2432C571.745 94.7198 570.245 95.1467 568.396 93.9068L567.861 93.5481C566.001 92.3003 565.846 90.7468 566.829 89.2817L566.868 89.2236C567.858 87.747 569.358 87.3201 571.207 88.56ZM567.647 89.7461L567.608 89.8042C566.976 90.746 567.039 91.682 568.233 92.5667L570.44 89.2762C569.168 88.5078 568.278 88.8043 567.647 89.7461ZM574.307 80.5533L573.341 81.8937C572.539 83.0069 572.778 83.9209 573.755 84.6246L576.197 86.3841L577.809 84.1463L578.57 84.6946L575.321 89.2042L574.56 88.6559L575.599 87.2133L571.578 84.3164L570.539 85.759L569.778 85.2107L571.366 83.007L572.46 83.6917L572.542 83.5781C572.066 82.8731 571.963 82.1778 572.626 81.2577L573.534 79.9968L574.307 80.5533ZM582.264 79.8615L581.355 81.0347L574.377 78.887L575.037 78.0348L581.014 79.9204L581.108 79.7987L577.781 74.4932L578.441 73.6411L582.264 79.8615ZM578.613 68.1655L579.689 66.8755L580.957 67.9339L579.881 69.2239L578.613 68.1655ZM586.812 72.7825L588.319 70.9766L589.039 71.5775L587.676 73.2115C587.003 74.0177 586.118 74.0082 585.344 73.3624L582.119 70.6717L580.388 72.7464L579.668 72.1455L582.063 69.2753L586.287 72.8002C586.502 72.9795 586.66 72.9653 586.812 72.7825ZM591.996 68.5024L591.949 68.5544C590.759 69.8757 589.214 70.0856 587.559 68.5961L587.081 68.1652C585.416 66.6664 585.483 65.1065 586.663 63.7956L586.71 63.7436C587.759 62.5783 589.129 62.229 590.481 63.2584L589.788 64.0283C588.882 63.3819 588.082 63.6221 587.407 64.3712L587.36 64.4232C586.564 65.3076 586.527 66.2909 587.765 67.4057L588.243 67.8366C589.481 68.9514 590.455 68.8111 591.252 67.9268L591.298 67.8747C591.964 67.136 592.138 66.2942 591.391 65.4709L592.084 64.701C593.249 65.9386 593.045 67.3371 591.996 68.5024ZM596.648 57.967L597.069 58.3773L593.591 61.9474L593.631 61.9865C594.825 63.149 595.804 63.047 596.634 62.1946L596.683 62.1445C597.298 61.5127 597.517 60.8069 597.14 60.0297L597.853 59.2977C598.622 60.5548 598.341 61.7861 597.355 62.799L597.306 62.8492C596.065 64.1227 594.513 64.2718 592.918 62.7185L592.457 62.2691C590.852 60.7061 590.981 59.1501 592.211 57.8865L592.26 57.8364C593.501 56.5628 595.053 56.4137 596.648 57.967ZM592.932 58.4909L592.883 58.541C592.092 59.3533 591.985 60.2854 593 61.371L595.764 58.533C594.652 57.5476 593.724 57.6786 592.932 58.4909ZM603.022 57.2413L602.971 57.2894C601.536 58.6447 600.208 58.6859 599.129 57.6251L599.872 56.9234C600.546 57.5765 601.257 57.6761 602.356 56.6379L602.407 56.5899C603.374 55.6767 603.402 55.0338 602.95 54.5554C602.383 53.9549 601.647 54.4191 600.679 55.0252C599.489 55.7636 598.309 56.4924 597.339 55.4644C596.55 54.6297 596.714 53.4163 597.915 52.282L597.966 52.234C599.279 50.994 600.578 50.942 601.637 51.9825L600.894 52.6842C600.239 52.0514 599.538 51.9621 598.582 52.8656L598.521 52.9233C597.696 53.7019 597.648 54.3442 598.052 54.7717C598.59 55.3417 599.296 54.9064 600.244 54.2997C601.434 53.5415 602.644 52.7838 603.663 53.8628C604.528 54.7788 604.274 56.059 603.022 57.2413Z" fill="#FFF0D6"/>
<path opacity="0.1" d="M1033.56 219.533C1032.19 221.145 1030.75 222.765 1029.25 224.393L1028.75 224.132C1027.29 225.717 1025.78 227.309 1024.21 228.907L1024.7 229.175C1023.17 230.74 1021.57 232.312 1019.93 233.888L1019.44 233.612C1017.86 235.124 1016.23 236.642 1014.56 238.164L1015.04 238.445C1013.4 239.939 1011.71 241.438 1009.97 242.941L1009.49 242.654C1007.79 244.124 1006.05 245.597 1004.26 247.074L1004.73 247.366C1003 248.797 1001.23 250.233 999.413 251.67L998.945 251.372C997.154 252.792 995.323 254.213 993.453 255.637L993.913 255.939C992.097 257.322 990.244 258.707 988.355 260.094L987.901 259.789C986.039 261.157 984.142 262.526 982.21 263.895L982.66 264.205C980.765 265.549 978.836 266.893 976.875 268.239L976.431 267.926C974.506 269.246 972.549 270.568 970.561 271.889L971.001 272.204C969.038 273.509 967.044 274.814 965.021 276.119L964.587 275.801C962.606 277.078 960.596 278.356 958.558 279.633L958.988 279.955C956.966 281.222 954.916 282.488 952.839 283.754L952.414 283.429C950.381 284.668 948.321 285.907 946.236 287.144L946.658 287.471C944.584 288.701 942.486 289.93 940.361 291.158L939.944 290.829C937.862 292.032 935.757 293.233 933.627 294.433L934.04 294.765C931.921 295.959 929.778 297.152 927.612 298.343L927.202 298.01C925.075 299.179 922.925 300.347 920.754 301.512L921.158 301.849C918.998 303.008 916.816 304.166 914.612 305.321L914.211 304.983C912.04 306.122 909.848 307.258 907.635 308.391L908.034 308.731C905.836 309.857 903.619 310.982 901.38 312.103L901.381 312.103L900.986 311.759C898.773 312.867 896.541 313.973 894.289 315.076L894.68 315.422L894.681 315.421C892.449 316.514 890.197 317.603 887.927 318.691L887.54 318.345C885.287 319.425 883.015 320.501 880.725 321.574L881.109 321.922C878.845 322.983 876.564 324.041 874.265 325.095L873.887 324.747C871.595 325.799 869.285 326.847 866.959 327.892L867.335 328.243C865.042 329.273 862.735 330.301 860.409 331.324L860.409 331.324L860.035 330.97C857.71 331.992 855.369 333.012 853.012 334.027L853.38 334.381C851.055 335.382 848.714 336.379 846.357 337.373L845.993 337.018C843.642 338.01 841.276 338.998 838.895 339.981L839.257 340.339C836.895 341.314 834.52 342.287 832.128 343.254L832.129 343.255L831.769 342.895C829.394 343.857 827.003 344.814 824.599 345.767L824.955 346.126C822.558 347.076 820.147 348.022 817.721 348.964L817.37 348.603C814.971 349.534 812.557 350.461 810.131 351.384L810.48 351.748C808.053 352.671 805.612 353.589 803.157 354.504L802.812 354.14C800.386 355.043 797.948 355.942 795.497 356.837L795.838 357.201C793.389 358.095 790.927 358.984 788.453 359.868L788.114 359.502C786.877 359.944 785.637 360.384 784.394 360.824C783.151 361.263 781.908 361.701 780.665 362.136L781.001 362.503C778.514 363.373 776.025 364.234 773.538 365.085L773.206 364.717C770.717 365.57 768.227 366.413 765.738 367.247L766.067 367.617C763.548 368.461 761.03 369.296 758.513 370.121L758.186 369.75C755.67 370.574 753.154 371.39 750.64 372.196L750.961 372.567C748.419 373.382 745.879 374.186 743.34 374.981L743.021 374.609C740.475 375.406 737.929 376.194 735.386 376.972L735.701 377.347C733.141 378.13 730.581 378.902 728.025 379.665L727.714 379.29C725.136 380.06 722.56 380.819 719.988 381.568L720.294 381.944C717.715 382.695 715.139 383.436 712.566 384.166L712.262 383.79C709.653 384.53 707.047 385.26 704.444 385.98L704.744 386.36C702.14 387.08 699.539 387.788 696.943 388.486L696.647 388.107C694.013 388.816 691.382 389.514 688.756 390.201L689.046 390.581C686.412 391.27 683.783 391.948 681.159 392.615L680.872 392.234C678.216 392.909 675.566 393.573 672.921 394.225L673.203 394.608C670.539 395.265 667.881 395.912 665.228 396.546L664.949 396.16C662.272 396.8 659.601 397.428 656.936 398.044L657.212 398.43C654.517 399.053 651.828 399.663 649.147 400.262L648.877 399.876C646.178 400.479 643.486 401.07 640.802 401.649L641.066 402.035C638.341 402.622 635.624 403.197 632.916 403.758L632.656 403.371C629.932 403.936 627.217 404.488 624.512 405.028L624.767 405.416C622.012 405.965 619.266 406.5 616.53 407.022L616.28 406.633C613.531 407.158 610.792 407.669 608.064 408.167L608.308 408.557C605.523 409.065 602.749 409.559 599.987 410.038L599.749 409.647C596.971 410.129 594.204 410.597 591.451 411.05L591.684 411.442C588.87 411.905 586.07 412.354 583.284 412.787L583.057 412.394C580.248 412.83 577.452 413.252 574.671 413.657L574.891 414.051C572.051 414.466 569.226 414.865 566.417 415.247L566.203 414.852C563.359 415.239 560.53 415.61 557.719 415.964L557.927 416.361C555.063 416.722 552.216 417.065 549.387 417.391L549.186 416.993C546.303 417.326 543.439 417.641 540.594 417.937L540.786 418.335C537.901 418.636 535.037 418.918 532.194 419.182L532.009 418.783C529.083 419.055 526.179 419.307 523.298 419.54L523.474 419.941C520.558 420.176 517.665 420.389 514.797 420.584L514.632 420.184C511.674 420.385 508.743 420.565 505.84 420.722L505.995 421.123C503.027 421.284 500.087 421.423 497.178 421.539L497.034 421.138C494.071 421.256 491.138 421.35 488.238 421.421L488.371 421.824C485.347 421.898 482.358 421.945 479.405 421.968L479.286 421.567C476.271 421.59 473.293 421.586 470.354 421.556L470.46 421.958C467.44 421.927 464.462 421.868 461.526 421.78L461.436 421.377C458.362 421.285 455.335 421.161 452.357 421.006L452.428 421.408C449.345 421.247 446.314 421.054 443.337 420.826L443.286 420.425C440.205 420.189 437.183 419.917 434.222 419.609L434.249 420.008C431.155 419.687 428.126 419.323 425.165 418.922L425.163 418.527C422.057 418.106 419.026 417.642 416.073 417.133L416.042 417.523C412.916 416.985 409.877 416.397 406.928 415.76L406.994 415.377C403.897 414.708 400.901 413.985 398.011 413.208L397.9 413.579C394.826 412.752 391.869 411.865 389.031 410.914L389.193 410.557C386.208 409.556 383.36 408.487 380.653 407.35L380.431 407.685C377.55 406.474 374.827 405.186 372.267 403.82L372.559 403.518C369.894 402.096 367.409 400.588 365.112 398.995L364.747 399.251C362.366 397.6 360.183 395.857 358.206 394.022L358.643 393.824C357.66 392.912 356.729 391.977 355.85 391.018C354.971 390.06 354.15 389.086 353.388 388.096L352.89 388.228C351.356 386.236 350.057 384.181 348.984 382.067L349.525 382.004C348.49 379.965 347.669 377.869 347.057 375.72L346.49 375.721C345.902 373.657 345.507 371.546 345.3 369.39L345.877 369.443C345.683 367.418 345.655 365.352 345.792 363.249L345.214 363.152C345.345 361.152 345.623 359.119 346.046 357.056L346.618 357.188C347.015 355.248 347.542 353.279 348.195 351.285L347.629 351.124C348.252 349.224 348.988 347.301 349.837 345.357L350.394 345.541C351.196 343.705 352.098 341.849 353.1 339.976L352.552 339.773C353.507 337.987 354.551 336.185 355.684 334.368L356.223 334.588C357.307 332.849 358.472 331.097 359.717 329.332L359.187 329.1C360.39 327.394 361.669 325.677 363.019 323.949L363.54 324.192C364.844 322.523 366.217 320.843 367.657 319.154L367.144 318.9C368.519 317.288 369.957 315.668 371.454 314.04L371.959 314.302C373.416 312.717 374.931 311.126 376.502 309.528L376.006 309.259C377.544 307.694 379.134 306.122 380.779 304.545L381.27 304.822C382.848 303.31 384.475 301.793 386.15 300.271L385.668 299.988C387.313 298.493 389.004 296.994 390.741 295.492L391.218 295.781C392.918 294.311 394.662 292.837 396.449 291.36L395.978 291.067C397.711 289.636 399.482 288.2 401.295 286.763L401.764 287.063C403.555 285.643 405.385 284.221 407.255 282.797L406.796 282.495C408.612 281.111 410.465 279.726 412.353 278.339L412.807 278.645C414.67 277.278 416.567 275.909 418.499 274.539L418.049 274.228C419.944 272.884 421.873 271.54 423.834 270.194L424.278 270.509C426.203 269.188 428.16 267.867 430.147 266.546L429.708 266.229C431.67 264.924 433.664 263.619 435.687 262.314L436.122 262.634C438.103 261.356 440.113 260.079 442.151 258.802L441.721 258.479C443.743 257.212 445.792 255.945 447.869 254.679L448.294 255.005C450.327 253.766 452.387 252.528 454.473 251.291L454.051 250.963C456.125 249.733 458.223 248.503 460.347 247.275L460.765 247.606C462.846 246.403 464.951 245.201 467.081 244.001L466.668 243.668C468.788 242.474 470.931 241.281 473.097 240.09L473.506 240.425C475.633 239.256 477.783 238.087 479.955 236.922L479.551 236.585C481.711 235.426 483.892 234.267 486.096 233.112L486.498 233.451C488.668 232.313 490.86 231.177 493.072 230.043L492.675 229.702C494.872 228.576 497.09 227.452 499.329 226.331L499.722 226.675C501.935 225.567 504.168 224.461 506.42 223.358L506.029 223.012C508.261 221.919 510.512 220.83 512.781 219.742L513.168 220.09C515.421 219.01 517.693 217.933 519.983 216.86L519.6 216.511C521.863 215.45 524.145 214.392 526.443 213.338L526.822 213.688C529.114 212.636 531.423 211.587 533.749 210.542L533.374 210.19C535.667 209.161 537.975 208.133 540.301 207.11L540.674 207.465C542.998 206.442 545.34 205.423 547.697 204.408L547.328 204.052C549.653 203.051 551.994 202.054 554.35 201.06L554.716 201.416C557.067 200.425 559.433 199.437 561.814 198.453L561.452 198.095C563.814 197.12 566.189 196.146 568.58 195.179L568.939 195.54C571.314 194.578 573.704 193.621 576.108 192.668L575.754 192.307C578.151 191.357 580.563 190.412 582.988 189.47L583.339 189.831C585.737 188.9 588.15 187.973 590.576 187.05L590.228 186.686C592.655 185.763 595.096 184.844 597.551 183.929L597.897 184.294C600.322 183.391 602.76 182.492 605.212 181.597L604.871 181.233C607.32 180.339 609.781 179.449 612.256 178.565L612.594 178.932C613.831 178.49 615.071 178.05 616.314 177.61C617.557 177.171 618.8 176.733 620.043 176.299L619.707 175.93C622.195 175.06 624.684 174.2 627.171 173.348L627.502 173.717C629.992 172.864 632.481 172.021 634.97 171.187L634.641 170.816C637.16 169.972 639.679 169.138 642.197 168.312L642.522 168.684C645.038 167.86 647.554 167.044 650.068 166.238L649.748 165.867C652.29 165.052 654.829 164.247 657.369 163.452L657.686 163.825C660.233 163.028 662.779 162.241 665.322 161.463L665.007 161.086C667.568 160.303 670.128 159.532 672.684 158.768L672.995 159.145C675.573 158.375 678.148 157.616 680.721 156.867L680.414 156.489C682.993 155.738 685.57 154.997 688.143 154.267L688.446 154.645C691.056 153.904 693.662 153.174 696.265 152.455L695.964 152.074C698.568 151.354 701.17 150.646 703.766 149.948L704.061 150.327C706.696 149.618 709.327 148.921 711.953 148.234L711.662 147.852C714.296 147.163 716.925 146.485 719.55 145.818L719.836 146.2C722.492 145.525 725.143 144.862 727.788 144.21L727.505 143.825C730.138 143.176 732.766 142.537 735.387 141.911L735.48 141.888L735.76 142.274C738.436 141.634 741.108 141.006 743.772 140.39L743.497 140.004C746.192 139.381 748.88 138.77 751.561 138.171L751.83 138.558C754.529 137.955 757.222 137.365 759.907 136.786L759.642 136.398C762.367 135.811 765.085 135.237 767.793 134.675L768.053 135.063C770.776 134.498 773.491 133.947 776.196 133.408L775.942 133.018C778.697 132.469 781.443 131.933 784.178 131.411L784.428 131.801C787.177 131.276 789.917 130.766 792.645 130.268L792.401 129.876C795.186 129.368 797.96 128.875 800.722 128.396L800.96 128.788C803.738 128.306 806.504 127.838 809.258 127.384L809.025 126.991C811.838 126.528 814.639 126.08 817.426 125.647L817.652 126.041C820.461 125.604 823.257 125.183 826.038 124.777L825.817 124.382C828.657 123.967 831.482 123.568 834.291 123.186L834.505 123.583C837.35 123.196 840.179 122.825 842.99 122.471L842.782 122.073C845.646 121.712 848.493 121.368 851.321 121.042L851.522 121.441C854.406 121.109 857.27 120.794 860.115 120.497L859.923 120.098C862.808 119.797 865.672 119.515 868.515 119.251L868.699 119.651C871.625 119.379 874.53 119.127 877.41 118.895L877.235 118.493L877.236 118.492C880.151 118.257 883.044 118.044 885.911 117.849L886.076 118.25C889.034 118.049 891.966 117.87 894.869 117.712L894.714 117.311C897.682 117.149 900.621 117.011 903.53 116.895L903.675 117.297C906.638 117.179 909.57 117.084 912.47 117.013L912.338 116.61C915.362 116.536 918.351 116.489 921.304 116.466L921.423 116.868C924.438 116.845 927.416 116.848 930.354 116.878L930.249 116.475C932.201 116.495 934.136 116.527 936.054 116.571L939.182 116.653L939.272 117.057C942.346 117.149 945.373 117.273 948.351 117.428L948.281 117.026C951.364 117.187 954.395 117.379 957.372 117.607L957.422 118.009C960.503 118.245 963.525 118.517 966.487 118.825L966.459 118.426C969.27 118.718 972.028 119.043 974.73 119.401L975.544 119.511L975.545 119.907C978.652 120.328 981.683 120.793 984.636 121.302L984.666 120.91C987.792 121.448 990.832 122.036 993.782 122.673L993.715 123.058C996.812 123.726 999.807 124.449 1002.7 125.227L1002.81 124.854C1005.88 125.681 1008.84 126.568 1011.68 127.519L1011.52 127.878C1014.5 128.878 1017.35 129.947 1020.06 131.084L1020.28 130.748C1023.16 131.958 1025.88 133.247 1028.44 134.613L1028.15 134.916C1030.81 136.339 1033.3 137.846 1035.6 139.439L1035.96 139.182C1038.34 140.834 1040.53 142.576 1042.5 144.411L1042.07 144.61C1043.05 145.522 1043.98 146.457 1044.86 147.416C1045.74 148.374 1046.56 149.348 1047.32 150.338L1047.82 150.205C1049.35 152.197 1050.65 154.252 1051.73 156.366L1051.18 156.431C1052.22 158.469 1053.04 160.565 1053.65 162.714L1054.22 162.712C1054.81 164.776 1055.2 166.887 1055.41 169.043L1055.41 169.043L1054.83 168.991C1055.03 171.016 1055.05 173.082 1054.92 175.186L1055.49 175.282C1055.36 177.282 1055.09 179.314 1054.66 181.377L1054.09 181.246C1053.69 183.186 1053.17 185.156 1052.51 187.15L1053.08 187.31C1052.46 189.21 1051.72 191.132 1050.87 193.076L1050.31 192.894C1049.51 194.73 1048.61 196.585 1047.61 198.458L1048.16 198.661C1047.2 200.447 1046.16 202.249 1045.03 204.065L1045.03 204.065L1044.49 203.847C1043.4 205.586 1042.24 207.338 1040.99 209.102L1041.52 209.334C1040.32 211.04 1039.04 212.757 1037.69 214.485L1037.17 214.242C1035.86 215.911 1034.49 217.591 1033.05 219.28L1033.56 219.533Z" stroke="#FFF0D6" stroke-dasharray="8 8"/>
<path opacity="0.6" d="M820.92 341.015L819.906 341.421L818.041 338.985L815.026 340.193L815.357 343.242L814.317 343.658L813.342 333.764L814.823 333.171L820.92 341.015ZM814.395 334.398L814.914 339.197L817.435 338.187L814.512 334.351L814.395 334.398ZM825.359 338.222L827.841 337.225L828.19 338.096L825.904 339.014C824.929 339.405 824.154 338.977 823.778 338.042L821.003 331.13L818.587 332.1L818.237 331.23L821.615 329.874L824.875 337.994C824.98 338.253 825.138 338.31 825.359 338.222ZM834.249 331.521L834.476 332.063L829.879 333.988L829.901 334.04C830.544 335.577 831.485 335.866 832.583 335.406L832.647 335.379C833.461 335.038 833.938 334.474 833.895 333.612L834.838 333.217C835.054 334.675 834.314 335.698 833.009 336.244L832.945 336.271C831.305 336.958 829.818 336.488 828.958 334.435L828.709 333.841C827.844 331.775 828.571 330.393 830.198 329.711L830.262 329.684C831.902 328.997 833.389 329.467 834.249 331.521ZM830.625 330.549L830.56 330.576C829.514 331.014 829.051 331.831 829.56 333.226L833.214 331.696C832.577 330.354 831.671 330.111 830.625 330.549ZM838.591 333.749L837.521 334.2L838.547 329.862L835.033 327.835L836.129 327.372L838.775 328.961L838.904 328.907L839.612 325.903L840.708 325.44L839.708 329.373L843.532 331.664L842.448 332.122L839.486 330.287L839.357 330.341L838.591 333.749ZM848.683 324.805L850.003 327.819L851.118 327.33L851.495 328.189L849.545 329.043L848.918 327.82L848.777 327.882C848.774 328.678 848.293 329.744 847.062 330.283L847.011 330.305C846.139 330.687 844.976 330.616 844.471 329.461L844.437 329.384C843.966 328.307 844.599 327.449 845.969 326.635L847.883 325.491L847.743 325.171C847.277 324.106 846.619 323.722 845.555 324.188L845.504 324.21C844.555 324.626 844.2 325.316 844.535 326.361L843.548 326.794C843.037 325.244 843.645 324.015 845.171 323.347L845.197 323.336C846.89 322.595 847.981 323.202 848.683 324.805ZM846.787 329.41L846.838 329.388C847.89 328.927 848.866 327.736 848.22 326.261L848.209 326.235L846.412 327.297C845.404 327.891 845.091 328.364 845.35 328.954L845.383 329.031C845.613 329.557 846.146 329.691 846.787 329.41Z" fill="#FFF0D6"/>
<path d="M848.756 108.189H847.664L846.838 105.235H843.59L842.764 108.189H841.644L844.416 98.6407H846.012L848.756 108.189ZM845.158 99.6207L843.856 104.269H846.572L845.284 99.6207H845.158ZM856.549 98.6407V99.6067H854.113V107.223H856.549V108.189H850.641V107.223H853.063V99.6067H850.641V98.6407H856.549Z" fill="#FFF0D6"/>
<path d="M394.176 244.641H397.228C399.09 244.641 400.364 245.663 400.364 248.057V250.773C400.364 253.167 399.09 254.189 397.228 254.189H394.176V244.641ZM399.328 250.773V248.057C399.328 246.237 398.6 245.607 397.228 245.607H395.212V253.223H397.228C398.6 253.223 399.328 252.593 399.328 250.773ZM408.605 250.451V251.039H403.621V251.095C403.621 252.761 404.377 253.391 405.567 253.391H405.637C406.519 253.391 407.177 253.055 407.471 252.243H408.493C408.129 253.671 407.051 254.329 405.637 254.329H405.567C403.789 254.329 402.599 253.321 402.599 251.095V250.451C402.599 248.211 403.803 247.217 405.567 247.217H405.637C407.415 247.217 408.605 248.225 408.605 250.451ZM405.637 248.155H405.567C404.433 248.155 403.691 248.729 403.621 250.213H407.583C407.513 248.729 406.771 248.155 405.637 248.155ZM414.143 254.329H414.073C412.099 254.329 411.105 253.447 411.049 251.935H412.071C412.113 252.873 412.561 253.433 414.073 253.433H414.143C415.473 253.433 415.935 252.985 415.935 252.327C415.935 251.501 415.081 251.333 413.961 251.109C412.589 250.829 411.231 250.549 411.231 249.135C411.231 247.987 412.183 247.217 413.835 247.217H413.905C415.711 247.217 416.691 248.071 416.747 249.555H415.725C415.683 248.645 415.235 248.099 413.919 248.099H413.835C412.701 248.099 412.225 248.533 412.225 249.121C412.225 249.905 413.037 250.073 414.143 250.283C415.529 250.549 416.929 250.829 416.929 252.313C416.929 253.573 415.865 254.329 414.143 254.329ZM421.936 243.997H423.616V245.649H421.936V243.997ZM423.644 253.251H425.996V254.189H423.868C422.818 254.189 422.258 253.503 422.258 252.495V248.295H419.556V247.357H423.294V252.859C423.294 253.139 423.406 253.251 423.644 253.251ZM432.024 256.919H428.258V255.981H432.234C432.486 255.981 432.612 255.869 432.612 255.589V253.027H432.472C432.136 253.783 431.436 254.329 430.4 254.329H430.358C428.888 254.329 427.782 253.307 427.782 251.095V250.437C427.782 248.225 428.888 247.217 430.316 247.217H430.372C431.408 247.217 432.122 247.749 432.458 248.477H432.598V247.357H433.634V255.225C433.634 256.233 433.074 256.919 432.024 256.919ZM430.61 253.363H430.666C431.688 253.363 432.598 252.775 432.598 251.039V250.465C432.598 248.799 431.688 248.183 430.666 248.183H430.61C429.56 248.183 428.818 248.771 428.818 250.465V251.039C428.818 252.747 429.56 253.363 430.61 253.363ZM437.353 254.189H436.317V247.357H437.353V248.477H437.479C437.815 247.707 438.627 247.217 439.607 247.217H439.663C441.217 247.217 442.029 248.183 442.029 250.059V254.189H440.993V250.101C440.993 248.701 440.433 248.183 439.439 248.183H439.383C438.305 248.183 437.353 248.785 437.353 250.227V254.189Z" fill="#FFF0D6"/>
<path d="M865.476 407.511V407.553C865.476 409.387 864.566 410.269 863.054 410.409V410.479L865.35 414.189H864.174L861.864 410.423H860.464V414.189H859.428V404.641H862.606C864.384 404.641 865.476 405.495 865.476 407.511ZM864.44 407.553V407.511C864.44 406.055 863.88 405.607 862.606 405.607H860.464V409.457H862.606C863.88 409.457 864.44 409.009 864.44 407.553ZM873.073 409.961V413.251H874.291V414.189H872.163L872.079 412.817H871.925C871.603 413.545 870.735 414.329 869.391 414.329H869.335C868.383 414.329 867.347 413.797 867.347 412.537V412.453C867.347 411.277 868.271 410.745 869.853 410.549L872.065 410.269V409.919C872.065 408.757 871.617 408.141 870.455 408.141H870.399C869.363 408.141 868.761 408.631 868.649 409.723H867.571C867.725 408.099 868.775 407.217 870.441 407.217H870.469C872.317 407.217 873.073 408.211 873.073 409.961ZM869.489 413.419H869.545C870.693 413.419 872.065 412.719 872.065 411.109V411.081L869.993 411.333C868.831 411.473 868.355 411.781 868.355 412.425V412.509C868.355 413.083 868.789 413.419 869.489 413.419ZM879.409 414.329H879.367C878.331 414.329 877.631 413.783 877.295 413.027H877.155V416.905H876.133V407.357H877.169V408.477H877.309C877.645 407.749 878.359 407.217 879.395 407.217H879.451C880.879 407.217 881.999 408.225 881.999 410.437V411.095C881.999 413.307 880.879 414.329 879.409 414.329ZM879.101 413.363H879.157C880.207 413.363 880.963 412.747 880.963 411.039V410.465C880.963 408.771 880.207 408.183 879.157 408.183H879.101C878.079 408.183 877.169 408.799 877.169 410.465V411.039C877.169 412.775 878.079 413.363 879.101 413.363ZM886.936 403.997H888.616V405.649H886.936V403.997ZM888.644 413.251H890.996V414.189H888.868C887.818 414.189 887.258 413.503 887.258 412.495V408.295H884.556V407.357H888.294V412.859C888.294 413.139 888.406 413.251 888.644 413.251ZM895.4 414.329H895.358C893.888 414.329 892.768 413.307 892.768 411.095V410.437C892.768 408.225 893.888 407.217 895.316 407.217H895.372C896.408 407.217 897.122 407.749 897.458 408.477H897.598V404.109H898.634V414.189H897.612V413.027H897.472C897.136 413.783 896.436 414.329 895.4 414.329ZM895.61 413.363H895.666C896.688 413.363 897.598 412.775 897.598 411.039V410.465C897.598 408.799 896.688 408.183 895.666 408.183H895.61C894.56 408.183 893.804 408.771 893.804 410.465V411.039C893.804 412.747 894.56 413.363 895.61 413.363ZM909.739 404.641H913.113C914.891 404.641 915.983 405.495 915.983 407.511V407.553C915.983 409.569 914.891 410.423 913.113 410.423H910.775V414.189H909.739V404.641ZM914.947 407.553V407.511C914.947 406.055 914.387 405.607 913.113 405.607H910.775V409.457H913.113C914.387 409.457 914.947 409.009 914.947 407.553ZM924.322 408.309H922.67C921.298 408.309 920.696 409.037 920.696 410.241V413.251H923.454V414.189H917.896V413.251H919.674V408.295H917.896V407.357H920.612L920.696 408.645H920.836C921.13 407.847 921.634 407.357 922.768 407.357H924.322V408.309ZM929.398 414.329H929.328C927.55 414.329 926.36 413.321 926.36 411.095V410.451C926.36 408.211 927.564 407.217 929.328 407.217H929.398C931.176 407.217 932.366 408.225 932.366 410.451V411.095C932.366 413.335 931.162 414.329 929.398 414.329ZM929.328 413.391H929.398C930.588 413.391 931.344 412.761 931.344 411.095V410.451C931.344 408.785 930.588 408.155 929.398 408.155H929.328C928.138 408.155 927.382 408.785 927.382 410.451V411.095C927.382 412.761 928.138 413.391 929.328 413.391ZM940.761 407.357V408.295H937.499V412.859C937.499 413.139 937.625 413.251 937.849 413.251H940.761V414.189H938.073C937.023 414.189 936.463 413.503 936.463 412.495V408.295H934.139V407.357H936.463V405.691L937.499 405.607V407.357H940.761ZM946.187 414.329H946.117C944.339 414.329 943.149 413.321 943.149 411.095V410.451C943.149 408.211 944.353 407.217 946.117 407.217H946.187C947.965 407.217 949.155 408.225 949.155 410.451V411.095C949.155 413.335 947.951 414.329 946.187 414.329ZM946.117 413.391H946.187C947.377 413.391 948.133 412.761 948.133 411.095V410.451C948.133 408.785 947.377 408.155 946.187 408.155H946.117C944.927 408.155 944.171 408.785 944.171 410.451V411.095C944.171 412.761 944.927 413.391 946.117 413.391ZM957.55 407.357V408.295H954.288V412.859C954.288 413.139 954.414 413.251 954.638 413.251H957.55V414.189H954.862C953.812 414.189 953.252 413.503 953.252 412.495V408.295H950.928V407.357H953.252V405.691L954.288 405.607V407.357H957.55ZM963.018 413.237L965.174 407.357H966.252L963.27 415.225C962.892 416.233 962.248 416.919 961.058 416.919H959.798V415.953H961.506C961.87 415.953 962.024 415.813 962.136 415.491L962.668 414.189H962.192L959.616 407.357H960.694L962.822 413.237H963.018ZM971.749 414.329H971.707C970.671 414.329 969.971 413.783 969.635 413.027H969.495V416.905H968.473V407.357H969.509V408.477H969.649C969.985 407.749 970.699 407.217 971.735 407.217H971.791C973.219 407.217 974.339 408.225 974.339 410.437V411.095C974.339 413.307 973.219 414.329 971.749 414.329ZM971.441 413.363H971.497C972.547 413.363 973.303 412.747 973.303 411.039V410.465C973.303 408.771 972.547 408.183 971.497 408.183H971.441C970.419 408.183 969.509 408.799 969.509 410.465V411.039C969.509 412.775 970.419 413.363 971.441 413.363ZM979.275 403.997H980.955V405.649H979.275V403.997ZM980.983 413.251H983.335V414.189H981.207C980.157 414.189 979.597 413.503 979.597 412.495V408.295H976.895V407.357H980.633V412.859C980.633 413.139 980.745 413.251 980.983 413.251ZM986.298 414.189H985.262V407.357H986.298V408.477H986.424C986.76 407.707 987.572 407.217 988.552 407.217H988.608C990.162 407.217 990.974 408.183 990.974 410.059V414.189H989.938V410.101C989.938 408.701 989.378 408.183 988.384 408.183H988.328C987.25 408.183 986.298 408.785 986.298 410.227V414.189ZM997.759 416.919H993.993V415.981H997.969C998.221 415.981 998.347 415.869 998.347 415.589V413.027H998.207C997.871 413.783 997.171 414.329 996.135 414.329H996.093C994.623 414.329 993.517 413.307 993.517 411.095V410.437C993.517 408.225 994.623 407.217 996.051 407.217H996.107C997.143 407.217 997.857 407.749 998.193 408.477H998.333V407.357H999.369V415.225C999.369 416.233 998.809 416.919 997.759 416.919ZM996.345 413.363H996.401C997.423 413.363 998.333 412.775 998.333 411.039V410.465C998.333 408.799 997.423 408.183 996.401 408.183H996.345C995.295 408.183 994.553 408.771 994.553 410.465V411.039C994.553 412.747 995.295 413.363 996.345 413.363Z" fill="#FFF0D6"/>
<circle cx="462" cy="250" r="6" fill="#FF5100"/>
<circle cx="822" cy="103" r="6" fill="#FF5100"/>
<ellipse cx="833" cy="124.189" rx="3" ry="2" fill="#443D3F"/>
<circle cx="841" cy="409" r="6" fill="#FF5100"/>
<path d="M698.588 251.689H697.028L695.848 247.469H691.208L690.028 251.689H688.428L692.388 238.049H694.668L698.588 251.689ZM693.448 239.449L691.588 246.089H695.468L693.628 239.449H693.448ZM709.72 238.049V239.429H706.24V250.309H709.72V251.689H701.28V250.309H704.74V239.429H701.28V238.049H709.72Z" fill="#FFF0D6"/>
<path d="M643.763 260.049V261.429H640.283V272.309H643.763V273.689H635.323V272.309H638.783V261.429H635.323V260.049H643.763ZM648.935 273.689H647.455V263.929H648.935V265.529H649.115C649.595 264.429 650.755 263.729 652.155 263.729H652.235C654.455 263.729 655.615 265.109 655.615 267.789V273.689H654.135V267.849C654.135 265.849 653.335 265.109 651.915 265.109H651.835C650.295 265.109 648.935 265.969 648.935 268.029V273.689ZM667.827 263.929V265.269H663.167V271.789C663.167 272.189 663.347 272.349 663.667 272.349H667.827V273.689H663.987C662.487 273.689 661.687 272.709 661.687 271.269V265.269H658.367V263.929H661.687V261.549L663.167 261.429V263.929H667.827ZM679.82 268.349V269.189H672.7V269.269C672.7 271.649 673.78 272.549 675.48 272.549H675.58C676.84 272.549 677.78 272.069 678.2 270.909H679.66C679.14 272.949 677.6 273.889 675.58 273.889H675.48C672.94 273.889 671.24 272.449 671.24 269.269V268.349C671.24 265.149 672.96 263.729 675.48 263.729H675.58C678.12 263.729 679.82 265.169 679.82 268.349ZM675.58 265.069H675.48C673.86 265.069 672.8 265.889 672.7 268.009H678.36C678.26 265.889 677.2 265.069 675.58 265.069ZM692.312 265.289H689.952C687.992 265.289 687.132 266.329 687.132 268.049V272.349H691.072V273.689H683.132V272.349H685.672V265.269H683.132V263.929H687.012L687.132 265.769H687.332C687.752 264.629 688.472 263.929 690.092 263.929H692.312V265.289ZM703.044 267.649V272.349H704.784V273.689H701.744L701.624 271.729H701.404C700.944 272.769 699.704 273.889 697.784 273.889H697.704C696.344 273.889 694.864 273.129 694.864 271.329V271.209C694.864 269.529 696.184 268.769 698.444 268.489L701.604 268.089V267.589C701.604 265.929 700.964 265.049 699.304 265.049H699.224C697.744 265.049 696.884 265.749 696.724 267.309H695.184C695.404 264.989 696.904 263.729 699.284 263.729H699.324C701.964 263.729 703.044 265.149 703.044 267.649ZM697.924 272.589H698.004C699.644 272.589 701.604 271.589 701.604 269.289V269.249L698.644 269.609C696.984 269.809 696.304 270.249 696.304 271.169V271.289C696.304 272.109 696.924 272.589 697.924 272.589ZM711.556 273.889H711.456C708.916 273.889 707.216 272.449 707.216 269.269V268.349C707.216 265.149 708.936 263.729 711.456 263.729H711.556C713.796 263.729 715.476 264.849 715.676 267.269H714.196C714.016 265.689 712.996 265.069 711.556 265.069H711.456C709.756 265.069 708.676 265.969 708.676 268.349V269.269C708.676 271.649 709.756 272.549 711.456 272.549H711.556C712.976 272.549 714.036 271.929 714.196 270.349H715.676C715.476 272.769 713.796 273.889 711.556 273.889ZM727.788 263.929V265.269H723.128V271.789C723.128 272.189 723.308 272.349 723.628 272.349H727.788V273.689H723.948C722.448 273.689 721.648 272.709 721.648 271.269V265.269H718.328V263.929H721.648V261.549L723.128 261.429V263.929H727.788ZM734.84 259.129H737.24V261.489H734.84V259.129ZM737.28 272.349H740.64V273.689H737.6C736.1 273.689 735.3 272.709 735.3 271.269V265.269H731.44V263.929H736.78V271.789C736.78 272.189 736.94 272.349 737.28 272.349ZM747.533 273.889H747.433C744.893 273.889 743.193 272.449 743.193 269.269V268.349C743.193 265.149 744.913 263.729 747.433 263.729H747.533C750.073 263.729 751.773 265.169 751.773 268.349V269.269C751.773 272.469 750.053 273.889 747.533 273.889ZM747.433 272.549H747.533C749.233 272.549 750.313 271.649 750.313 269.269V268.349C750.313 265.969 749.233 265.069 747.533 265.069H747.433C745.733 265.069 744.653 265.969 744.653 268.349V269.269C744.653 271.649 745.733 272.549 747.433 272.549ZM756.865 273.689H755.385V263.929H756.865V265.529H757.045C757.525 264.429 758.685 263.729 760.085 263.729H760.165C762.385 263.729 763.545 265.109 763.545 267.789V273.689H762.065V267.849C762.065 265.849 761.265 265.109 759.845 265.109H759.765C758.225 265.109 756.865 265.969 756.865 268.029V273.689Z" fill="#FFF0D6"/>
<path d="M685.432 282.049V294.309H692.032V295.689H683.952V282.049H685.432ZM703.044 289.649V294.349H704.784V295.689H701.744L701.624 293.729H701.404C700.944 294.769 699.704 295.889 697.784 295.889H697.704C696.344 295.889 694.864 295.129 694.864 293.329V293.209C694.864 291.529 696.184 290.769 698.444 290.489L701.604 290.089V289.589C701.604 287.929 700.964 287.049 699.304 287.049H699.224C697.744 287.049 696.884 287.749 696.724 289.309H695.184C695.404 286.989 696.904 285.729 699.284 285.729H699.324C701.964 285.729 703.044 287.149 703.044 289.649ZM697.924 294.589H698.004C699.644 294.589 701.604 293.589 701.604 291.289V291.249L698.644 291.609C696.984 291.809 696.304 292.249 696.304 293.169V293.289C696.304 294.109 696.924 294.589 697.924 294.589ZM712.096 295.889H712.036C710.556 295.889 709.556 295.109 709.076 294.029H708.876V295.689H707.416V281.289H708.896V287.529H709.096C709.576 286.489 710.596 285.729 712.076 285.729H712.156C714.196 285.729 715.796 287.169 715.796 290.329V291.269C715.796 294.429 714.196 295.889 712.096 295.889ZM711.656 294.509H711.736C713.236 294.509 714.316 293.629 714.316 291.189V290.369C714.316 287.949 713.236 287.109 711.736 287.109H711.656C710.196 287.109 708.896 287.989 708.896 290.369V291.189C708.896 293.669 710.196 294.509 711.656 294.509Z" fill="#FFF0D6"/>
</svg>
